<?xml version="1.0" encoding="utf-8"?>
<!-- Generator: Adobe Illustrator 16.0.0, SVG Export Plug-In . SVG Version: 6.00 Build 0)  -->
<!DOCTYPE svg PUBLIC "-//W3C//DTD SVG 1.1//EN" "http://www.w3.org/Graphics/SVG/1.1/DTD/svg11.dtd">
<svg version="1.1" id="Layer_1" xmlns="http://www.w3.org/2000/svg" xmlns:xlink="http://www.w3.org/1999/xlink" x="0px" y="0px"
	 width="256px" height="256px" viewBox="0 0 256 256" enable-background="new 0 0 256 256" xml:space="preserve">
<g>
	<g>
		<g>
			<path fill="#26B463" d="M128.009,252.234c-68.508,0-124.244-55.732-124.244-124.236c0-68.503,55.736-124.233,124.244-124.233
				c68.499,0,124.226,55.73,124.226,124.233C252.234,196.502,196.508,252.234,128.009,252.234z"/>
			<path fill="#FFFFFF" d="M128.009,7.529c66.53,0,120.462,53.932,120.462,120.469s-53.932,120.473-120.462,120.473
				c-66.544,0-120.479-53.936-120.479-120.473S61.465,7.529,128.009,7.529 M128.009,0C57.425,0,0,57.419,0,127.998
				C0,198.58,57.425,256,128.009,256C198.582,256,256,198.58,256,127.998C256,57.419,198.582,0,128.009,0L128.009,0z"/>
		</g>
		<g>
			<path fill="#FFFFFF" d="M98.814,183.355l-26.882-15.782c-2.49-1.461-4.104-3.604-4.831-6.375
				c-0.725-2.775-0.351-5.445,1.117-7.93c1.459-2.493,3.61-4.132,6.382-4.878c2.446-0.654,4.793-0.465,7.016,0.572l0.054-16.021
				c-1.571-0.301-3.181-0.459-4.774-0.459c-2.189,0-4.441,0.289-6.691,0.867c-6.992,1.771-12.407,5.867-16.103,12.15
				c-3.669,6.242-4.61,12.962-2.81,19.97c1.81,7.015,5.917,12.444,12.191,16.136l37.521,22.014
				C98.012,197.186,97.274,190.385,98.814,183.355z"/>
			<path fill="#FFFFFF" d="M109.531,90.616l-26.844,15.306c-2.508,1.433-5.197,1.76-7.969,0.973c-0.605-0.167-1.2-0.4-1.802-0.708
				l-0.064,16.272c1.483,0.256,2.945,0.377,4.38,0.377c4.427,0,8.754-1.191,12.876-3.541l34.34-19.582l-9.993-5.708
				C112.69,92.997,111.025,91.858,109.531,90.616z"/>
			<path fill="#FFFFFF" d="M108.486,164.679l27.49,16.14c2.486,1.455,4.109,3.621,4.814,6.418c0.215,0.857,0.328,1.715,0.34,2.561
				l13.926-7.967c-2.008-6.178-5.926-11.016-11.648-14.382l-34.342-20.157l-0.044,11.354
				C109.022,160.698,108.835,162.728,108.486,164.679z"/>
			<path fill="#FFFFFF" d="M87.771,127.059l-0.115,31.331c0,2.896-1.053,5.381-3.125,7.404c-0.454,0.443-0.963,0.852-1.534,1.227
				l14.016,8.235c3.926-4.732,5.917-10.315,5.937-16.632l0.142-39.738l-9.976,5.684C91.375,125.566,89.581,126.4,87.771,127.059z"/>
			<path fill="#FFFFFF" d="M186.182,136.879c-2.414-0.65-4.822-0.988-7.152-0.988c-4.408,0-8.732,1.193-12.85,3.535l-29.643,16.948
				l9.945,5.832c1.982,1.168,3.873,2.559,5.613,4.135l22.508-12.863c2.506-1.428,5.193-1.771,7.951-1.021
				c2.758,0.756,4.885,2.41,6.311,4.926c1.428,2.504,1.787,5.191,1.049,7.975c-0.738,2.786-2.389,4.929-4.904,6.358l-48.873,27.93
				c-2.506,1.432-5.195,1.758-7.973,0.982c-2.771-0.787-4.907-2.453-6.334-4.967c-1.426-2.5-1.774-5.176-1.023-7.941
				c0.721-2.621,2.262-4.67,4.55-6.088l-14.852-8.721c-2.54,2.896-4.363,6.379-5.437,10.334c-1.891,6.982-1.03,13.713,2.552,20.004
				c3.615,6.337,8.976,10.491,15.95,12.36c2.396,0.639,4.772,0.959,7.082,0.959c4.422,0,8.766-1.188,12.896-3.551l48.723-27.843
				c6.344-3.609,10.506-8.992,12.398-15.973c1.896-6.989,1.055-13.683-2.506-19.922
				C198.547,142.945,193.178,138.771,186.182,136.879z"/>
			<path fill="#FFFFFF" d="M162.623,71.488l22.387,12.793c2.516,1.431,4.166,3.573,4.904,6.368c0.738,2.777,0.379,5.463-1.049,7.971
				c-1.426,2.511-3.553,4.169-6.311,4.923c-2.758,0.754-5.445,0.406-7.943-1.017l-48.88-27.935c-2.506-1.433-4.16-3.551-4.925-6.309
				c-0.098-0.371-0.178-0.753-0.243-1.14l-14.604,8.331c2.167,5.679,6.037,10.136,11.505,13.258l48.715,27.836
				c4.117,2.351,8.441,3.537,12.85,3.537c2.33,0,4.738-0.333,7.152-0.989c6.996-1.892,12.365-6.063,15.982-12.396
				c3.561-6.239,4.402-12.944,2.506-19.926c-1.893-6.986-6.055-12.358-12.398-15.971l-31.977-18.272
				C163.061,58.562,163.84,64.922,162.623,71.488z"/>
			<path fill="#FFFFFF" d="M126.078,57.009c2.511-1.43,5.195-1.772,7.941-1.021c2.766,0.752,4.891,2.41,6.314,4.923
				c1.438,2.508,1.787,5.189,1.047,7.977c-0.607,2.292-1.846,4.148-3.693,5.542l13.689,7.823c2.199-2.746,3.797-5.942,4.76-9.521
				c1.891-6.99,1.053-13.69-2.506-19.92c-3.607-6.33-8.986-10.505-15.967-12.4c-2.422-0.656-4.828-0.987-7.162-0.987
				c-4.405,0-8.729,1.193-12.839,3.542L79.901,64.49c7.04,0.614,13.295,3.369,18.632,8.231L126.078,57.009z"/>
			<path fill="#FFFFFF" d="M65.985,128.286l0.149-0.032l0.625-0.074l0.107-31.781c0.021-2.894,1.051-5.381,3.081-7.397
				c2.022-2.006,4.506-3.025,7.373-3.025c2.927,0.017,5.425,1.046,7.479,3.071c1.927,1.916,2.963,4.243,3.06,6.931l13.889-7.921
				c-1.259-3.654-3.362-6.982-6.263-9.88c-5.104-5.125-11.344-7.735-18.519-7.758h-0.117c-7.248,0-13.498,2.577-18.602,7.672
				c-5.119,5.115-7.725,11.375-7.75,18.611l-0.153,43.419C54.271,134.467,59.525,130.496,65.985,128.286z"/>
		</g>
	</g>
</g>
</svg>
