<?xml version="1.0" encoding="utf-8"?>
<!-- Generator: Adobe Illustrator 16.0.0, SVG Export Plug-In . SVG Version: 6.00 Build 0)  -->
<!DOCTYPE svg PUBLIC "-//W3C//DTD SVG 1.1//EN" "http://www.w3.org/Graphics/SVG/1.1/DTD/svg11.dtd">
<svg version="1.1" id="Layer_1" xmlns="http://www.w3.org/2000/svg" xmlns:xlink="http://www.w3.org/1999/xlink" x="0px" y="0px"
	 width="300px" height="280px" viewBox="0 0 300 280" enable-background="new 0 0 300 280" xml:space="preserve">
<g>
	<g>
		<g>
			<g>
				<g>
					<path id="SVGID_1_" fill="#27B463" d="M150.004,163.309c40.58,0,73.47-32.894,73.47-73.477
						c0-40.581-32.891-73.474-73.47-73.474c-40.58,0-73.478,32.893-73.478,73.474C76.527,130.415,109.424,163.309,150.004,163.309z"
						/>
				</g>
			</g>
			<g>
				<path fill="#FFFFFF" d="M132.202,123.597l-16.396-9.627c-1.517-0.89-2.504-2.199-2.947-3.89c-0.44-1.69-0.213-3.32,0.681-4.833
					c0.892-1.52,2.202-2.521,3.896-2.977c1.489-0.399,2.92-0.282,4.275,0.35l0.034-9.772c-0.959-0.184-1.939-0.28-2.913-0.28
					c-1.333,0-2.708,0.178-4.08,0.53c-4.267,1.079-7.568,3.576-9.82,7.41c-2.236,3.807-2.813,7.903-1.713,12.178
					c1.101,4.278,3.605,7.589,7.436,9.841l22.882,13.426C131.714,132.03,131.262,127.882,132.202,123.597z"/>
				<path fill="#FFFFFF" d="M138.735,67.033l-16.372,9.334c-1.528,0.873-3.167,1.075-4.858,0.595
					c-0.369-0.102-0.732-0.245-1.098-0.432l-0.039,9.924c0.904,0.156,1.796,0.23,2.672,0.23c2.696,0,5.337-0.727,7.851-2.16
					l20.944-11.943l-6.096-3.482C140.663,68.485,139.647,67.791,138.735,67.033z"/>
				<path fill="#FFFFFF" d="M138.101,112.204l16.765,9.843c1.518,0.89,2.508,2.208,2.938,3.916c0.129,0.522,0.199,1.047,0.205,1.562
					l8.494-4.858c-1.223-3.769-3.613-6.721-7.105-8.774L138.454,101.6l-0.026,6.924
					C138.427,109.778,138.312,111.014,138.101,112.204z"/>
				<path fill="#FFFFFF" d="M125.466,89.259l-0.073,19.11c0,1.766-0.639,3.284-1.903,4.516c-0.275,0.271-0.586,0.519-0.937,0.748
					l8.548,5.022c2.396-2.885,3.61-6.293,3.619-10.141l0.088-24.239l-6.083,3.469C127.664,88.35,126.57,88.858,125.466,89.259z"/>
				<path fill="#FFFFFF" d="M185.485,95.248c-1.473-0.396-2.941-0.601-4.362-0.601c-2.688,0-5.327,0.727-7.836,2.157l-18.08,10.335
					l6.065,3.556c1.209,0.713,2.363,1.561,3.424,2.522l13.728-7.847c1.529-0.87,3.169-1.081,4.851-0.623
					c1.68,0.464,2.979,1.474,3.851,3.006c0.87,1.527,1.089,3.166,0.64,4.864c-0.453,1.701-1.459,3.006-2.996,3.879l-29.806,17.033
					c-1.526,0.872-3.166,1.072-4.858,0.597c-1.69-0.478-2.994-1.497-3.863-3.026c-0.871-1.524-1.081-3.155-0.627-4.844
					c0.441-1.598,1.38-2.849,2.774-3.715l-9.058-5.316c-1.546,1.768-2.66,3.889-3.315,6.303c-1.151,4.258-0.63,8.364,1.556,12.198
					c2.207,3.865,5.476,6.401,9.731,7.54c1.458,0.391,2.908,0.586,4.316,0.586c2.696,0,5.347-0.727,7.866-2.166l29.715-16.981
					c3.867-2.203,6.406-5.483,7.563-9.742c1.152-4.261,0.641-8.347-1.527-12.151C193.026,98.948,189.753,96.405,185.485,95.248z"/>
				<path fill="#FFFFFF" d="M171.116,55.366l13.65,7.805c1.536,0.874,2.543,2.179,2.996,3.883c0.449,1.694,0.23,3.331-0.64,4.86
					c-0.87,1.532-2.171,2.544-3.851,3.003c-1.682,0.46-3.32,0.247-4.845-0.621l-29.812-17.038c-1.529-0.871-2.537-2.166-3.006-3.847
					c-0.06-0.228-0.107-0.46-0.145-0.694l-8.909,5.078c1.322,3.465,3.68,6.183,7.016,8.087l29.712,16.979
					c2.509,1.433,5.146,2.156,7.836,2.156c1.421,0,2.891-0.203,4.361-0.603c4.269-1.153,7.543-3.698,9.748-7.56
					c2.17-3.804,2.682-7.896,1.528-12.152c-1.155-4.261-3.694-7.538-7.563-9.741L169.69,43.817
					C171.385,47.486,171.856,51.364,171.116,55.366z"/>
				<path fill="#FFFFFF" d="M148.83,46.536c1.528-0.871,3.168-1.081,4.842-0.623c1.688,0.461,2.981,1.47,3.853,3.003
					c0.877,1.53,1.088,3.165,0.637,4.863c-0.368,1.4-1.125,2.533-2.251,3.381l8.347,4.77c1.344-1.674,2.318-3.623,2.905-5.805
					c1.153-4.262,0.644-8.35-1.529-12.15c-2.198-3.86-5.479-6.406-9.737-7.561c-1.478-0.4-2.944-0.603-4.365-0.603
					c-2.688,0-5.326,0.727-7.833,2.16l-23.029,13.126c4.294,0.376,8.109,2.058,11.362,5.021L148.83,46.536z"/>
				<path fill="#FFFFFF" d="M112.18,90.009l0.092-0.02l0.38-0.045l0.067-19.384c0.011-1.763,0.642-3.28,1.878-4.51
					c1.234-1.225,2.747-1.846,4.497-1.846c1.785,0.009,3.309,0.638,4.561,1.875c1.176,1.167,1.807,2.588,1.865,4.227l8.472-4.832
					c-0.767-2.229-2.052-4.258-3.819-6.027c-3.114-3.125-6.92-4.718-11.292-4.733h-0.072c-4.42,0-8.232,1.574-11.347,4.682
					c-3.122,3.12-4.71,6.938-4.728,11.349l-0.091,26.482C105.034,93.778,108.241,91.357,112.18,90.009z"/>
			</g>
		</g>
	</g>
	<g>
		<rect x="12.563" y="241.4" fill="#595A5C" width="274.875" height="22.242"/>
		<g>
			<path fill="#FFFFFF" d="M33.349,257.332v-9.865h1.847v9.865H33.349z"/>
			<path fill="#FFFFFF" d="M43.429,247.451h1.861v9.881h-1.155v0.016l-5.188-6.668v6.652h-1.86v-9.865h1.51l4.834,6.117
				L43.429,247.451L43.429,247.451z"/>
			<path fill="#FFFFFF" d="M53.242,249.848c-0.34-0.564-1.271-1.102-2.342-1.102c-1.381,0-2.045,0.58-2.045,1.313
				c0,0.861,1.017,1.1,2.2,1.24c2.057,0.254,3.974,0.789,3.974,3.145c0,2.199-1.944,3.143-4.143,3.143
				c-2.016,0-3.566-0.619-4.299-2.424l1.55-0.805c0.438,1.084,1.579,1.564,2.777,1.564c1.17,0,2.269-0.408,2.269-1.479
				c0-0.932-0.972-1.313-2.283-1.453c-2.016-0.238-3.877-0.773-3.877-2.988c0-2.029,2.003-2.859,3.82-2.875
				c1.537,0,3.129,0.438,3.877,1.959L53.242,249.848z"/>
			<path fill="#FFFFFF" d="M59.021,249.156h-3.129v-1.689c2.848,0,5.258,0,8.12,0v1.689h-3.129v8.176h-1.862V249.156z"/>
			<path fill="#FFFFFF" d="M72.146,255.473h-5.159l-0.846,1.859h-2.015l4.425-9.867h2.03l4.425,9.867h-2.028L72.146,255.473z
				 M69.565,249.537l-1.832,4.201h3.665L69.565,249.537z"/>
			<path fill="#FFFFFF" d="M82.338,247.451h1.861v9.881h-1.157v0.016l-5.188-6.668v6.652h-1.86v-9.865h1.509l4.834,6.117
				L82.338,247.451L82.338,247.451z"/>
			<path fill="#FFFFFF" d="M88.457,249.156h-3.128v-1.689c2.848,0,5.257,0,8.118,0v1.689h-3.13v8.176h-1.86V249.156L88.457,249.156z
				"/>
			<path fill="#FFFFFF" d="M103.513,249.848c-0.337-0.564-1.269-1.102-2.341-1.102c-1.38,0-2.043,0.58-2.043,1.313
				c0,0.861,1.015,1.1,2.2,1.24c2.058,0.254,3.974,0.789,3.974,3.145c0,2.199-1.945,3.143-4.143,3.143
				c-2.017,0-3.567-0.619-4.3-2.424l1.551-0.805c0.437,1.084,1.576,1.564,2.776,1.564c1.169,0,2.271-0.408,2.271-1.479
				c0-0.932-0.975-1.313-2.286-1.453c-2.015-0.238-3.874-0.773-3.874-2.988c0-2.029,2-2.859,3.819-2.875
				c1.536,0,3.13,0.438,3.876,1.959L103.513,249.848z"/>
			<path fill="#FFFFFF" d="M114.102,257.332h-7.387c0-3.285,0-6.582,0-9.865h7.387v1.803h-5.541v2.271h5.344v1.734h-5.344v2.225
				h5.541V257.332z"/>
			<path fill="#FFFFFF" d="M124.235,256.094c-1.015,1-2.324,1.465-3.75,1.465c-3.664,0-5.215-2.521-5.229-5.088
				c-0.014-2.58,1.664-5.201,5.229-5.201c1.341,0,2.609,0.508,3.624,1.51l-1.241,1.197c-0.647-0.635-1.521-0.932-2.383-0.932
				c-2.381,0-3.41,1.775-3.396,3.426c0.013,1.635,0.958,3.34,3.396,3.34c0.861,0,1.834-0.354,2.482-1L124.235,256.094z"/>
			<path fill="#FFFFFF" d="M133.796,247.48v5.65c0,2.92-1.791,4.414-4.272,4.414c-2.366,0-4.383-1.439-4.383-4.414v-5.65h1.846v5.65
				c0,1.775,1.017,2.721,2.553,2.721s2.411-1.027,2.411-2.721v-5.65H133.796z"/>
			<path fill="#FFFFFF" d="M144.369,257.332h-2.214l-2.875-3.297h-1.789v3.297h-1.861v-9.881c1.563,0,3.129,0.016,4.694,0.016
				c2.325,0.014,3.552,1.563,3.552,3.27c0,1.354-0.62,2.721-2.495,3.104l2.988,3.365V257.332L144.369,257.332z M137.489,249.197
				v3.158h2.833c1.185,0,1.692-0.787,1.692-1.578c0-0.789-0.521-1.58-1.692-1.58H137.489z"/>
			<path fill="#FFFFFF" d="M152.489,257.332h-7.386c0-3.285,0-6.582,0-9.865h7.386v1.803h-5.539v2.271h5.342v1.734h-5.342v2.225
				h5.539V257.332z"/>
			<path fill="#FFFFFF" d="M159.328,249.156h-3.129v-1.689c2.847,0,5.256,0,8.118,0v1.689h-3.129v8.176h-1.86V249.156z"/>
			<path fill="#FFFFFF" d="M174.2,257.332h-2.213l-2.877-3.297h-1.791v3.297h-1.859v-9.881c1.564,0,3.129,0.016,4.693,0.016
				c2.326,0.014,3.553,1.563,3.553,3.27c0,1.354-0.62,2.721-2.494,3.104l2.988,3.365V257.332L174.2,257.332z M167.319,249.197v3.158
				h2.834c1.185,0,1.69-0.787,1.69-1.578c0-0.789-0.521-1.58-1.69-1.58H167.319z"/>
			<path fill="#FFFFFF" d="M181.969,255.473h-5.159l-0.847,1.859h-2.015l4.425-9.867h2.028l4.428,9.867h-2.028L181.969,255.473z
				 M179.388,249.537l-1.83,4.201h3.664L179.388,249.537z"/>
			<path fill="#FFFFFF" d="M192.161,247.451h1.859v9.881h-1.156v0.016l-5.188-6.668v6.652h-1.861v-9.865h1.509l4.837,6.117V247.451
				L192.161,247.451z"/>
			<path fill="#FFFFFF" d="M201.974,249.848c-0.34-0.564-1.271-1.102-2.34-1.102c-1.384,0-2.046,0.58-2.046,1.313
				c0,0.861,1.017,1.1,2.2,1.24c2.057,0.254,3.975,0.789,3.975,3.145c0,2.199-1.943,3.143-4.146,3.143
				c-2.015,0-3.565-0.619-4.3-2.424l1.553-0.805c0.438,1.084,1.579,1.564,2.775,1.564c1.17,0,2.271-0.408,2.271-1.479
				c0-0.932-0.974-1.313-2.282-1.453c-2.018-0.238-3.878-0.773-3.878-2.988c0-2.029,2.001-2.859,3.819-2.875
				c1.537,0,3.131,0.438,3.877,1.959L201.974,249.848z"/>
			<path fill="#FFFFFF" d="M212.208,255.473h-5.159l-0.847,1.859h-2.016l4.426-9.867h2.029l4.428,9.867h-2.03L212.208,255.473z
				 M209.627,249.537l-1.831,4.201h3.665L209.627,249.537z"/>
			<path fill="#FFFFFF" d="M224.022,256.094c-1.017,1-2.326,1.465-3.75,1.465c-3.666,0-5.215-2.521-5.229-5.088
				c-0.015-2.58,1.662-5.201,5.229-5.201c1.34,0,2.607,0.508,3.623,1.51l-1.24,1.197c-0.649-0.635-1.521-0.932-2.383-0.932
				c-2.383,0-3.41,1.775-3.396,3.426c0.014,1.635,0.958,3.34,3.396,3.34c0.86,0,1.832-0.354,2.48-1L224.022,256.094z"/>
			<path fill="#FFFFFF" d="M227.476,249.156h-3.127v-1.689c2.846,0,5.256,0,8.117,0v1.689h-3.129v8.176h-1.861V249.156z"/>
			<path fill="#FFFFFF" d="M233.608,257.332v-9.865h1.848v9.865H233.608z"/>
			<path fill="#FFFFFF" d="M247.196,252.455c-0.027,2.553-1.592,5.104-5.059,5.104c-3.47,0-5.074-2.496-5.074-5.088
				c0-2.594,1.662-5.201,5.074-5.201C245.533,247.27,247.228,249.877,247.196,252.455z M238.896,252.498
				c0.043,1.621,0.918,3.354,3.242,3.354c2.326,0,3.198-1.746,3.229-3.367c0.027-1.664-0.901-3.523-3.229-3.523
				C239.813,248.961,238.853,250.836,238.896,252.498z"/>
			<path fill="#FFFFFF" d="M255.052,247.451h1.86v9.881h-1.156v0.016l-5.188-6.668v6.652h-1.859v-9.865h1.509l4.835,6.117V247.451
				L255.052,247.451z"/>
			<path fill="#FFFFFF" d="M264.862,249.848c-0.338-0.564-1.269-1.102-2.34-1.102c-1.381,0-2.043,0.58-2.043,1.313
				c0,0.861,1.016,1.1,2.198,1.24c2.06,0.254,3.976,0.789,3.976,3.145c0,2.199-1.945,3.143-4.144,3.143
				c-2.019,0-3.567-0.619-4.302-2.424l1.552-0.805c0.437,1.084,1.578,1.564,2.777,1.564c1.168,0,2.269-0.408,2.269-1.479
				c0-0.932-0.973-1.313-2.283-1.453c-2.016-0.238-3.877-0.773-3.877-2.988c0-2.029,2.002-2.859,3.821-2.875
				c1.535,0,3.128,0.438,3.878,1.959L264.862,249.848z"/>
		</g>
	</g>
	<g>
		<path fill="#595A5C" d="M40.778,218.266c-2.608,3.283-5.878,4.881-9.992,4.881c-2.221,0-4.246-0.494-6.018-1.469
			c-1.756-0.967-3.158-2.342-4.165-4.09c-1.013-1.76-1.524-3.658-1.524-5.646c0-3.092,1.08-5.646,3.301-7.809
			c2.231-2.172,4.972-3.229,8.377-3.229c4.271,0,7.542,1.586,10.002,4.854l0.696,0.924l5.151-3.203l-0.638-1.068
			c-0.995-1.664-2.228-3.061-3.661-4.145c-1.415-1.07-3.147-1.947-5.152-2.605c-1.997-0.656-4.1-0.99-6.243-0.99
			c-3.416,0-6.557,0.771-9.332,2.287c-2.792,1.527-5.018,3.682-6.614,6.404c-1.595,2.719-2.404,5.705-2.404,8.875
			c0,4.73,1.735,8.803,5.155,12.104c3.409,3.289,7.744,4.955,12.886,4.955c3.323,0,6.338-0.654,8.962-1.945
			c2.651-1.307,4.794-3.174,6.372-5.547l0.703-1.061l-5.143-3.383L40.778,218.266z"/>
		<path fill="#595A5C" d="M74.571,196.617c-1.97-1.291-4.246-1.945-6.768-1.945c-2.428,0-4.718,0.574-6.805,1.713
			c-1.181,0.641-2.31,1.473-3.375,2.484v-15.193h-6.459v44.836h6.459v-12.459c0-3.918,0.176-6.609,0.521-7.988
			c0.537-2.076,1.617-3.77,3.305-5.18c1.658-1.389,3.48-2.063,5.569-2.063c1.773,0,3.202,0.422,4.248,1.252
			c1.049,0.836,1.792,2.137,2.208,3.863c0.176,0.74,0.386,2.512,0.386,6.748v15.824h6.459v-16.975c0-4.385-0.446-7.555-1.364-9.688
			C78.016,199.672,76.542,197.91,74.571,196.617z"/>
		<path fill="#595A5C" d="M112.742,198.943c-1.076-1.027-2.242-1.873-3.49-2.527c-2.203-1.156-4.69-1.744-7.392-1.744
			c-4.669,0-8.719,1.703-12.036,5.061c-3.314,3.355-4.995,7.449-4.995,12.168c0,4.811,1.665,8.953,4.945,12.314
			c3.291,3.373,7.318,5.082,11.974,5.082c2.615,0,5.064-0.555,7.278-1.646c1.313-0.646,2.555-1.488,3.715-2.514v3.373h6.402v-33.053
			h-6.402L112.742,198.943L112.742,198.943z M109.869,204.17c2.103,2.146,3.126,4.754,3.126,7.969c0,2.086-0.47,3.98-1.394,5.631
			c-0.917,1.635-2.25,2.951-3.959,3.914c-1.723,0.971-3.568,1.463-5.487,1.463c-1.892,0-3.688-0.492-5.341-1.465
			c-1.655-0.973-2.995-2.355-3.979-4.109c-0.99-1.762-1.491-3.627-1.491-5.545c0-1.938,0.497-3.803,1.477-5.545
			c0.976-1.734,2.304-3.098,3.946-4.053c1.646-0.953,3.469-1.439,5.417-1.439C105.257,200.99,107.77,202.029,109.869,204.17z"/>
		<path fill="#595A5C" d="M128.077,182.889c-1.221,0-2.283,0.445-3.16,1.326c-0.875,0.879-1.318,1.953-1.318,3.193
			c0,1.223,0.444,2.287,1.318,3.164c0.876,0.881,1.938,1.328,3.16,1.328c1.238,0,2.312-0.447,3.187-1.326s1.319-1.943,1.319-3.166
			c0-1.238-0.444-2.314-1.318-3.193C130.388,183.336,129.315,182.889,128.077,182.889z"/>
		<rect x="124.861" y="195.457" fill="#595A5C" width="6.459" height="33.055"/>
		<path fill="#595A5C" d="M160.358,196.617c-1.969-1.291-4.246-1.945-6.769-1.945c-2.446,0-4.746,0.574-6.832,1.713
			c-1.174,0.637-2.292,1.463-3.348,2.469v-3.396h-6.458v33.055h6.458v-12.459c0-3.9,0.176-6.596,0.521-7.988
			c0.536-2.076,1.616-3.77,3.303-5.18c1.66-1.389,3.482-2.063,5.572-2.063c1.775,0,3.211,0.422,4.266,1.256
			c1.066,0.844,1.777,2.102,2.176,3.869c0.184,0.738,0.398,2.508,0.398,6.738v15.824h6.459v-16.975c0-4.365-0.445-7.527-1.363-9.672
			C163.806,199.678,162.329,197.91,160.358,196.617z"/>
		<path fill="#595A5C" d="M198.776,218.266c-2.61,3.283-5.879,4.881-9.993,4.881c-2.222,0-4.245-0.494-6.017-1.469
			c-1.758-0.967-3.158-2.342-4.166-4.09c-1.013-1.76-1.524-3.658-1.524-5.646c0-3.092,1.079-5.646,3.301-7.809
			c2.231-2.172,4.974-3.229,8.378-3.229c4.271,0,7.542,1.586,10.002,4.854l0.696,0.924l5.151-3.203l-0.638-1.068
			c-0.995-1.664-2.229-3.061-3.661-4.145c-1.414-1.07-3.147-1.947-5.15-2.605c-2-0.656-4.1-0.99-6.244-0.99
			c-3.416,0-6.557,0.771-9.332,2.287c-2.792,1.527-5.018,3.682-6.614,6.404c-1.596,2.719-2.403,5.705-2.403,8.875
			c0,4.73,1.733,8.803,5.154,12.104c3.408,3.289,7.744,4.955,12.887,4.955c3.322,0,6.338-0.654,8.961-1.945
			c2.651-1.307,4.795-3.174,6.373-5.547l0.703-1.061l-5.143-3.383L198.776,218.266z"/>
		<path fill="#595A5C" d="M224.876,194.672c-5.073,0-9.332,1.867-12.657,5.551c-3.015,3.33-4.543,7.314-4.543,11.846
			c0,4.576,1.612,8.627,4.794,12.041c3.203,3.441,7.379,5.188,12.406,5.188c5.009,0,9.174-1.744,12.378-5.188
			c3.181-3.414,4.794-7.467,4.794-12.041c0-4.549-1.527-8.543-4.545-11.875C234.177,196.529,229.928,194.672,224.876,194.672z
			 M224.862,201.047c2.916,0,5.369,1.059,7.496,3.236c2.137,2.188,3.175,4.762,3.175,7.869c0,1.977-0.486,3.844-1.444,5.553
			c-0.949,1.695-2.249,3.021-3.857,3.938c-1.619,0.922-3.426,1.391-5.369,1.391c-1.945,0-3.752-0.469-5.369-1.391
			c-1.609-0.918-2.908-2.242-3.858-3.938c-0.958-1.707-1.442-3.574-1.442-5.553c0-3.107,1.033-5.684,3.16-7.871
			C219.468,202.104,221.925,201.047,224.862,201.047z"/>
		<rect x="246.192" y="195.457" fill="#595A5C" width="6.459" height="33.055"/>
		<path fill="#595A5C" d="M249.408,182.889c-1.22,0-2.283,0.445-3.159,1.326c-0.875,0.879-1.318,1.953-1.318,3.193
			c0,1.223,0.443,2.287,1.318,3.164c0.875,0.881,1.938,1.328,3.159,1.328c1.237,0,2.313-0.447,3.187-1.326
			c0.877-0.879,1.319-1.943,1.319-3.166c0-1.238-0.442-2.314-1.319-3.193C251.72,183.336,250.647,182.889,249.408,182.889z"/>
		<path fill="#595A5C" d="M286.073,201.863c-0.938-2.188-2.412-3.953-4.383-5.246c-1.969-1.291-4.246-1.945-6.769-1.945
			c-2.446,0-4.746,0.574-6.832,1.713c-1.174,0.637-2.293,1.463-3.349,2.469v-3.396h-6.458v33.055h6.458v-12.459
			c0-3.9,0.177-6.596,0.521-7.988c0.537-2.076,1.617-3.77,3.306-5.18c1.66-1.389,3.481-2.063,5.57-2.063
			c1.775,0,3.211,0.422,4.266,1.256c1.067,0.844,1.777,2.102,2.176,3.869c0.183,0.738,0.4,2.508,0.4,6.738v15.824h6.459v-16.975
			C287.438,207.17,286.992,204.008,286.073,201.863z"/>
	</g>
</g>
</svg>
