<?xml version="1.0" encoding="utf-8"?>
<!-- Generator: Adobe Illustrator 16.0.0, SVG Export Plug-In . SVG Version: 6.00 Build 0)  -->
<!DOCTYPE svg PUBLIC "-//W3C//DTD SVG 1.1//EN" "http://www.w3.org/Graphics/SVG/1.1/DTD/svg11.dtd">
<svg version="1.1" id="Layer_1" xmlns="http://www.w3.org/2000/svg" xmlns:xlink="http://www.w3.org/1999/xlink" x="0px" y="0px"
	 width="300px" height="280px" viewBox="0 0 300 280" enable-background="new 0 0 300 280" xml:space="preserve">
<g>
	<g>
		<g>
			<g>
				<g>
					<path id="SVGID_3_" fill="#27B463" d="M150.004,163.309c40.579,0,73.471-32.894,73.471-73.477
						c0-40.581-32.892-73.474-73.471-73.474c-40.58,0-73.477,32.893-73.477,73.474C76.527,130.415,109.424,163.309,150.004,163.309z
						"/>
				</g>
			</g>
			<g>
				<path fill="#FFFFFF" d="M132.201,123.597l-16.395-9.627c-1.517-0.89-2.505-2.199-2.947-3.89c-0.441-1.69-0.214-3.32,0.68-4.833
					c0.893-1.52,2.202-2.521,3.896-2.977c1.489-0.399,2.921-0.282,4.275,0.35l0.034-9.772c-0.959-0.184-1.939-0.28-2.913-0.28
					c-1.333,0-2.709,0.178-4.08,0.53c-4.267,1.079-7.568,3.576-9.82,7.41c-2.236,3.807-2.814,7.903-1.713,12.178
					c1.101,4.278,3.605,7.589,7.436,9.841l22.881,13.426C131.714,132.03,131.262,127.882,132.201,123.597z"/>
				<path fill="#FFFFFF" d="M138.736,67.033l-16.373,9.334c-1.529,0.873-3.166,1.075-4.858,0.595
					c-0.369-0.102-0.732-0.245-1.098-0.432l-0.039,9.924c0.905,0.156,1.797,0.23,2.672,0.23c2.697,0,5.337-0.727,7.851-2.16
					l20.944-11.943l-6.096-3.482C140.662,68.485,139.647,67.791,138.736,67.033z"/>
				<path fill="#FFFFFF" d="M138.1,112.204l16.765,9.843c1.518,0.89,2.508,2.208,2.938,3.916c0.131,0.522,0.201,1.047,0.206,1.562
					l8.494-4.858c-1.224-3.769-3.612-6.721-7.106-8.774L138.454,101.6l-0.025,6.924C138.427,109.778,138.312,111.014,138.1,112.204z
					"/>
				<path fill="#FFFFFF" d="M125.466,89.259l-0.073,19.11c0,1.766-0.639,3.284-1.903,4.516c-0.276,0.271-0.586,0.519-0.937,0.748
					l8.549,5.022c2.396-2.885,3.609-6.293,3.618-10.141l0.088-24.239l-6.083,3.469C127.663,88.35,126.57,88.858,125.466,89.259z"/>
				<path fill="#FFFFFF" d="M185.484,95.248c-1.473-0.396-2.941-0.601-4.361-0.601c-2.689,0-5.328,0.727-7.837,2.157l-18.08,10.335
					l6.065,3.556c1.209,0.713,2.363,1.561,3.424,2.522l13.728-7.847c1.529-0.87,3.169-1.081,4.851-0.623
					c1.681,0.464,2.979,1.474,3.852,3.006c0.869,1.527,1.088,3.166,0.639,4.864c-0.453,1.701-1.459,3.006-2.994,3.879
					l-29.807,17.033c-1.527,0.872-3.167,1.072-4.859,0.597c-1.691-0.478-2.994-1.497-3.864-3.026
					c-0.871-1.524-1.08-3.155-0.626-4.844c0.441-1.598,1.38-2.849,2.774-3.715l-9.058-5.316c-1.546,1.768-2.66,3.889-3.314,6.303
					c-1.151,4.258-0.63,8.364,1.556,12.198c2.206,3.865,5.475,6.401,9.731,7.54c1.458,0.391,2.908,0.586,4.316,0.586
					c2.695,0,5.346-0.727,7.865-2.166l29.715-16.981c3.867-2.203,6.406-5.483,7.563-9.742c1.152-4.261,0.641-8.347-1.527-12.151
					C193.025,98.948,189.753,96.405,185.484,95.248z"/>
				<path fill="#FFFFFF" d="M171.115,55.366l13.652,7.805c1.534,0.874,2.541,2.179,2.994,3.883c0.449,1.694,0.23,3.331-0.639,4.86
					c-0.871,1.532-2.171,2.544-3.852,3.003c-1.682,0.46-3.32,0.247-4.845-0.621l-29.812-17.038
					c-1.529-0.871-2.536-2.166-3.005-3.847c-0.06-0.228-0.108-0.46-0.145-0.694l-8.908,5.078c1.322,3.465,3.681,6.183,7.016,8.087
					l29.711,16.979c2.509,1.433,5.147,2.156,7.837,2.156c1.42,0,2.891-0.203,4.361-0.603c4.269-1.153,7.541-3.698,9.748-7.56
					c2.168-3.804,2.681-7.896,1.527-12.152c-1.154-4.261-3.693-7.538-7.563-9.741l-19.504-11.144
					C171.384,47.486,171.857,51.364,171.115,55.366z"/>
				<path fill="#FFFFFF" d="M148.829,46.536c1.529-0.871,3.168-1.081,4.842-0.623c1.688,0.461,2.983,1.47,3.854,3.003
					c0.875,1.53,1.088,3.165,0.635,4.863c-0.368,1.4-1.125,2.533-2.251,3.381l8.347,4.77c1.344-1.674,2.318-3.623,2.906-5.805
					c1.152-4.262,0.643-8.35-1.53-12.15c-2.198-3.86-5.479-6.406-9.737-7.561c-1.478-0.4-2.944-0.603-4.365-0.603
					c-2.688,0-5.326,0.727-7.833,2.16l-23.029,13.126c4.294,0.376,8.109,2.058,11.362,5.021L148.829,46.536z"/>
				<path fill="#FFFFFF" d="M112.179,90.009l0.092-0.02l0.38-0.045l0.067-19.384c0.011-1.763,0.642-3.28,1.879-4.51
					c1.233-1.225,2.747-1.846,4.497-1.846c1.785,0.009,3.309,0.638,4.561,1.875c1.176,1.167,1.806,2.588,1.865,4.227l8.471-4.832
					c-0.766-2.229-2.051-4.258-3.819-6.027c-3.114-3.125-6.921-4.718-11.292-4.733h-0.072c-4.42,0-8.233,1.574-11.347,4.682
					c-3.122,3.12-4.711,6.938-4.728,11.349l-0.091,26.482C105.033,93.778,108.24,91.357,112.179,90.009z"/>
			</g>
		</g>
	</g>
	<g>
		<rect x="12.563" y="241.4" fill="#FFFFFF" width="274.875" height="22.242"/>
		<g>
			<path fill="#595A5C" d="M33.349,257.332v-9.865h1.847v9.865H33.349z"/>
			<path fill="#595A5C" d="M43.428,247.451h1.861v9.881h-1.155v0.016l-5.188-6.668v6.652h-1.861v-9.865h1.51l4.834,6.117
				L43.428,247.451L43.428,247.451z"/>
			<path fill="#595A5C" d="M53.241,249.848c-0.34-0.564-1.27-1.102-2.341-1.102c-1.382,0-2.045,0.58-2.045,1.313
				c0,0.861,1.016,1.1,2.2,1.24c2.058,0.254,3.974,0.789,3.974,3.145c0,2.199-1.945,3.143-4.143,3.143
				c-2.017,0-3.566-0.619-4.3-2.424l1.55-0.805c0.438,1.084,1.578,1.564,2.777,1.564c1.17,0,2.27-0.408,2.27-1.479
				c0-0.932-0.973-1.313-2.283-1.453c-2.017-0.238-3.877-0.773-3.877-2.988c0-2.029,2.003-2.859,3.82-2.875
				c1.537,0,3.129,0.438,3.877,1.959L53.241,249.848z"/>
			<path fill="#595A5C" d="M59.02,249.156h-3.129v-1.689c2.848,0,5.258,0,8.12,0v1.689h-3.13v8.176H59.02V249.156z"/>
			<path fill="#595A5C" d="M72.145,255.473h-5.158l-0.847,1.859h-2.015l4.426-9.867h2.03l4.425,9.867h-2.028L72.145,255.473z
				 M69.565,249.537l-1.832,4.201h3.665L69.565,249.537z"/>
			<path fill="#595A5C" d="M82.338,247.451h1.861v9.881h-1.157v0.016l-5.187-6.668v6.652h-1.861v-9.865h1.51l4.834,6.117V247.451
				L82.338,247.451z"/>
			<path fill="#595A5C" d="M88.456,249.156h-3.129v-1.689c2.848,0,5.258,0,8.119,0v1.689h-3.13v8.176h-1.86V249.156L88.456,249.156z
				"/>
			<path fill="#595A5C" d="M103.513,249.848c-0.337-0.564-1.269-1.102-2.341-1.102c-1.38,0-2.043,0.58-2.043,1.313
				c0,0.861,1.015,1.1,2.199,1.24c2.058,0.254,3.975,0.789,3.975,3.145c0,2.199-1.945,3.143-4.144,3.143
				c-2.017,0-3.567-0.619-4.3-2.424l1.551-0.805c0.437,1.084,1.577,1.564,2.776,1.564c1.169,0,2.271-0.408,2.271-1.479
				c0-0.932-0.974-1.313-2.285-1.453c-2.015-0.238-3.874-0.773-3.874-2.988c0-2.029,2-2.859,3.818-2.875
				c1.537,0,3.13,0.438,3.877,1.959L103.513,249.848z"/>
			<path fill="#595A5C" d="M114.101,257.332h-7.387c0-3.285,0-6.582,0-9.865h7.387v1.803h-5.54v2.271h5.344v1.734h-5.344v2.225h5.54
				V257.332z"/>
			<path fill="#595A5C" d="M124.235,256.094c-1.015,1-2.325,1.465-3.749,1.465c-3.664,0-5.216-2.521-5.229-5.088
				c-0.015-2.58,1.664-5.201,5.229-5.201c1.339,0,2.608,0.508,3.623,1.51l-1.242,1.197c-0.646-0.635-1.521-0.932-2.381-0.932
				c-2.382,0-3.411,1.775-3.396,3.426c0.013,1.635,0.959,3.34,3.396,3.34c0.86,0,1.834-0.354,2.481-1L124.235,256.094z"/>
			<path fill="#595A5C" d="M133.796,247.48v5.65c0,2.92-1.791,4.414-4.272,4.414c-2.367,0-4.384-1.439-4.384-4.414v-5.65h1.846v5.65
				c0,1.775,1.016,2.721,2.553,2.721c1.536,0,2.41-1.027,2.41-2.721v-5.65H133.796z"/>
			<path fill="#595A5C" d="M144.368,257.332h-2.214l-2.875-3.297h-1.79v3.297h-1.861v-9.881c1.564,0,3.13,0.016,4.694,0.016
				c2.326,0.014,3.553,1.563,3.553,3.27c0,1.354-0.62,2.721-2.495,3.104l2.988,3.365V257.332L144.368,257.332z M137.489,249.197
				v3.158h2.833c1.184,0,1.692-0.787,1.692-1.578c0-0.789-0.521-1.58-1.692-1.58H137.489z"/>
			<path fill="#595A5C" d="M152.488,257.332h-7.385c0-3.285,0-6.582,0-9.865h7.385v1.803h-5.539v2.271h5.342v1.734h-5.342v2.225
				h5.539V257.332z"/>
			<path fill="#595A5C" d="M159.327,249.156h-3.129v-1.689c2.847,0,5.257,0,8.118,0v1.689h-3.129v8.176h-1.86V249.156z"/>
			<path fill="#595A5C" d="M174.199,257.332h-2.213l-2.875-3.297h-1.793v3.297h-1.859v-9.881c1.564,0,3.13,0.016,4.693,0.016
				c2.326,0.014,3.553,1.563,3.553,3.27c0,1.354-0.62,2.721-2.494,3.104l2.988,3.365V257.332z M167.318,249.197v3.158h2.834
				c1.186,0,1.69-0.787,1.69-1.578c0-0.789-0.521-1.58-1.69-1.58H167.318z"/>
			<path fill="#595A5C" d="M181.968,255.473h-5.159l-0.847,1.859h-2.015l4.425-9.867h2.028l4.428,9.867H182.8L181.968,255.473z
				 M179.389,249.537l-1.832,4.201h3.664L179.389,249.537z"/>
			<path fill="#595A5C" d="M192.16,247.451h1.859v9.881h-1.156v0.016l-5.188-6.668v6.652h-1.859v-9.865h1.507l4.837,6.117V247.451
				L192.16,247.451z"/>
			<path fill="#595A5C" d="M201.973,249.848c-0.339-0.564-1.271-1.102-2.34-1.102c-1.384,0-2.045,0.58-2.045,1.313
				c0,0.861,1.016,1.1,2.199,1.24c2.057,0.254,3.975,0.789,3.975,3.145c0,2.199-1.943,3.143-4.145,3.143
				c-2.016,0-3.564-0.619-4.301-2.424l1.553-0.805c0.438,1.084,1.579,1.564,2.775,1.564c1.172,0,2.271-0.408,2.271-1.479
				c0-0.932-0.974-1.313-2.282-1.453c-2.018-0.238-3.878-0.773-3.878-2.988c0-2.029,2.002-2.859,3.82-2.875
				c1.536,0,3.13,0.438,3.877,1.959L201.973,249.848z"/>
			<path fill="#595A5C" d="M212.207,255.473h-5.159l-0.847,1.859h-2.016l4.426-9.867h2.029l4.428,9.867h-2.03L212.207,255.473z
				 M209.626,249.537l-1.83,4.201h3.664L209.626,249.537z"/>
			<path fill="#595A5C" d="M224.021,256.094c-1.018,1-2.326,1.465-3.75,1.465c-3.666,0-5.215-2.521-5.229-5.088
				c-0.015-2.58,1.661-5.201,5.229-5.201c1.338,0,2.607,0.508,3.621,1.51l-1.24,1.197c-0.647-0.635-1.521-0.932-2.381-0.932
				c-2.383,0-3.41,1.775-3.397,3.426c0.015,1.635,0.958,3.34,3.397,3.34c0.859,0,1.83-0.354,2.479-1L224.021,256.094z"/>
			<path fill="#595A5C" d="M227.475,249.156h-3.127v-1.689c2.846,0,5.256,0,8.117,0v1.689h-3.129v8.176h-1.861V249.156z"/>
			<path fill="#595A5C" d="M233.607,257.332v-9.865h1.848v9.865H233.607z"/>
			<path fill="#595A5C" d="M247.197,252.455c-0.028,2.553-1.594,5.104-5.061,5.104c-3.47,0-5.074-2.496-5.074-5.088
				c0-2.594,1.662-5.201,5.074-5.201C245.532,247.27,247.227,249.877,247.197,252.455z M238.896,252.498
				c0.041,1.621,0.916,3.354,3.24,3.354c2.326,0,3.199-1.746,3.229-3.367c0.027-1.664-0.901-3.523-3.229-3.523
				C239.813,248.961,238.854,250.836,238.896,252.498z"/>
			<path fill="#595A5C" d="M255.051,247.451h1.86v9.881h-1.156v0.016l-5.187-6.668v6.652h-1.861v-9.865h1.509l4.835,6.117V247.451z"
				/>
			<path fill="#595A5C" d="M264.861,249.848c-0.338-0.564-1.269-1.102-2.34-1.102c-1.381,0-2.043,0.58-2.043,1.313
				c0,0.861,1.016,1.1,2.198,1.24c2.06,0.254,3.976,0.789,3.976,3.145c0,2.199-1.944,3.143-4.144,3.143
				c-2.019,0-3.567-0.619-4.302-2.424l1.552-0.805c0.437,1.084,1.578,1.564,2.777,1.564c1.169,0,2.269-0.408,2.269-1.479
				c0-0.932-0.973-1.313-2.283-1.453c-2.015-0.238-3.875-0.773-3.875-2.988c0-2.029,2.002-2.859,3.819-2.875
				c1.535,0,3.13,0.438,3.878,1.959L264.861,249.848z"/>
		</g>
	</g>
	<g>
		<path fill="#FFFFFF" d="M40.779,218.266c-2.61,3.283-5.879,4.881-9.993,4.881c-2.221,0-4.246-0.494-6.018-1.469
			c-1.756-0.967-3.158-2.342-4.165-4.09c-1.013-1.76-1.525-3.658-1.525-5.646c0-3.092,1.08-5.646,3.301-7.809
			c2.232-2.172,4.973-3.229,8.378-3.229c4.271,0,7.542,1.586,10.002,4.854l0.696,0.924l5.152-3.203l-0.637-1.068
			c-0.996-1.664-2.229-3.061-3.662-4.145c-1.415-1.07-3.147-1.947-5.151-2.605c-1.998-0.656-4.101-0.99-6.244-0.99
			c-3.416,0-6.556,0.771-9.332,2.287c-2.791,1.527-5.017,3.682-6.614,6.404c-1.595,2.719-2.403,5.705-2.403,8.875
			c0,4.73,1.734,8.803,5.155,12.104c3.408,3.289,7.743,4.955,12.886,4.955c3.323,0,6.338-0.654,8.962-1.945
			c2.65-1.307,4.794-3.174,6.372-5.547l0.703-1.061l-5.143-3.383L40.779,218.266z"/>
		<path fill="#FFFFFF" d="M74.571,196.617c-1.97-1.291-4.247-1.945-6.768-1.945c-2.429,0-4.718,0.574-6.805,1.713
			c-1.181,0.641-2.309,1.473-3.376,2.484v-15.193h-6.459v44.836h6.459v-12.459c0-3.918,0.176-6.609,0.521-7.988
			c0.536-2.076,1.616-3.77,3.304-5.18c1.659-1.389,3.481-2.063,5.57-2.063c1.772,0,3.201,0.422,4.247,1.252
			c1.049,0.836,1.792,2.137,2.208,3.863c0.176,0.74,0.386,2.512,0.386,6.748v15.824h6.459v-16.975c0-4.385-0.446-7.555-1.365-9.688
			C78.016,199.672,76.541,197.91,74.571,196.617z"/>
		<path fill="#FFFFFF" d="M112.741,198.943c-1.075-1.027-2.242-1.873-3.489-2.527c-2.204-1.156-4.69-1.744-7.392-1.744
			c-4.669,0-8.72,1.703-12.037,5.061c-3.314,3.355-4.994,7.449-4.994,12.168c0,4.811,1.664,8.953,4.946,12.314
			c3.291,3.373,7.318,5.082,11.973,5.082c2.615,0,5.064-0.555,7.279-1.646c1.312-0.646,2.554-1.488,3.714-2.514v3.373h6.403v-33.053
			h-6.403V198.943z M109.868,204.17c2.103,2.146,3.126,4.754,3.126,7.969c0,2.086-0.469,3.98-1.394,5.631
			c-0.917,1.635-2.249,2.951-3.959,3.914c-1.723,0.971-3.569,1.463-5.486,1.463c-1.893,0-3.688-0.492-5.341-1.465
			c-1.656-0.973-2.995-2.355-3.979-4.109c-0.99-1.762-1.491-3.627-1.491-5.545c0-1.938,0.497-3.803,1.477-5.545
			c0.975-1.734,2.303-3.098,3.945-4.053c1.646-0.953,3.469-1.439,5.417-1.439C105.256,200.99,107.77,202.029,109.868,204.17z"/>
		<path fill="#FFFFFF" d="M128.076,182.889c-1.22,0-2.282,0.445-3.159,1.326c-0.875,0.879-1.318,1.953-1.318,3.193
			c0,1.223,0.443,2.287,1.318,3.164c0.876,0.881,1.939,1.328,3.159,1.328c1.239,0,2.312-0.447,3.188-1.326
			c0.875-0.879,1.318-1.943,1.318-3.166c0-1.238-0.443-2.314-1.318-3.193C130.388,183.336,129.315,182.889,128.076,182.889z"/>
		<rect x="124.861" y="195.457" fill="#FFFFFF" width="6.459" height="33.055"/>
		<path fill="#FFFFFF" d="M160.357,196.617c-1.969-1.291-4.246-1.945-6.768-1.945c-2.447,0-4.746,0.574-6.832,1.713
			c-1.174,0.637-2.292,1.463-3.348,2.469v-3.396h-6.459v33.055h6.459v-12.459c0-3.9,0.176-6.596,0.521-7.988
			c0.536-2.076,1.617-3.77,3.304-5.18c1.66-1.389,3.482-2.063,5.572-2.063c1.775,0,3.211,0.422,4.267,1.256
			c1.065,0.844,1.776,2.102,2.175,3.869c0.182,0.738,0.398,2.508,0.398,6.738v15.824h6.459v-16.975c0-4.365-0.445-7.527-1.364-9.672
			C163.805,199.678,162.329,197.91,160.357,196.617z"/>
		<path fill="#FFFFFF" d="M198.775,218.266c-2.609,3.283-5.879,4.881-9.993,4.881c-2.22,0-4.244-0.494-6.017-1.469
			c-1.757-0.967-3.158-2.342-4.166-4.09c-1.013-1.76-1.524-3.658-1.524-5.646c0-3.092,1.079-5.646,3.302-7.809
			c2.23-2.172,4.973-3.229,8.377-3.229c4.271,0,7.542,1.586,10.003,4.854l0.696,0.924l5.152-3.203l-0.64-1.068
			c-0.995-1.664-2.228-3.061-3.661-4.145c-1.414-1.07-3.147-1.947-5.15-2.605c-2-0.656-4.1-0.99-6.244-0.99
			c-3.416,0-6.557,0.771-9.332,2.287c-2.791,1.527-5.018,3.682-6.614,6.404c-1.595,2.719-2.403,5.705-2.403,8.875
			c0,4.73,1.733,8.803,5.155,12.104c3.408,3.289,7.743,4.955,12.886,4.955c3.323,0,6.338-0.654,8.961-1.945
			c2.652-1.307,4.795-3.174,6.373-5.547l0.703-1.061l-5.143-3.383L198.775,218.266z"/>
		<path fill="#FFFFFF" d="M224.875,194.672c-5.073,0-9.331,1.867-12.657,5.551c-3.015,3.33-4.543,7.314-4.543,11.846
			c0,4.576,1.613,8.627,4.794,12.041c3.204,3.441,7.379,5.188,12.406,5.188c5.009,0,9.174-1.744,12.378-5.188
			c3.181-3.414,4.795-7.467,4.795-12.041c0-4.549-1.528-8.543-4.545-11.875C234.176,196.529,229.927,194.672,224.875,194.672z
			 M224.861,201.047c2.916,0,5.369,1.059,7.496,3.236c2.137,2.188,3.175,4.762,3.175,7.869c0,1.977-0.486,3.844-1.443,5.553
			c-0.95,1.695-2.249,3.021-3.858,3.938c-1.617,0.922-3.424,1.391-5.369,1.391s-3.752-0.469-5.369-1.391
			c-1.609-0.918-2.908-2.242-3.858-3.938c-0.958-1.707-1.442-3.574-1.442-5.553c0-3.107,1.033-5.684,3.16-7.871
			C219.468,202.104,221.925,201.047,224.861,201.047z"/>
		<rect x="246.191" y="195.457" fill="#FFFFFF" width="6.459" height="33.055"/>
		<path fill="#FFFFFF" d="M249.407,182.889c-1.22,0-2.282,0.445-3.159,1.326c-0.875,0.879-1.318,1.953-1.318,3.193
			c0,1.223,0.443,2.287,1.318,3.164c0.876,0.881,1.938,1.328,3.159,1.328c1.239,0,2.313-0.447,3.187-1.326
			c0.877-0.879,1.319-1.943,1.319-3.166c0-1.238-0.442-2.314-1.319-3.193C251.719,183.336,250.646,182.889,249.407,182.889z"/>
		<path fill="#FFFFFF" d="M286.072,201.863c-0.938-2.188-2.412-3.953-4.383-5.246c-1.969-1.291-4.246-1.945-6.769-1.945
			c-2.446,0-4.745,0.574-6.832,1.713c-1.174,0.637-2.293,1.463-3.348,2.469v-3.396h-6.459v33.055h6.459v-12.459
			c0-3.9,0.177-6.596,0.521-7.988c0.536-2.076,1.616-3.77,3.305-5.18c1.66-1.389,3.482-2.063,5.57-2.063
			c1.775,0,3.211,0.422,4.268,1.256c1.066,0.844,1.775,2.102,2.174,3.869c0.184,0.738,0.4,2.508,0.4,6.738v15.824h6.459v-16.975
			C287.438,207.17,286.991,204.008,286.072,201.863z"/>
	</g>
</g>
</svg>
