<?xml version="1.0" encoding="utf-8"?>
<!-- Generator: Adobe Illustrator 16.0.0, SVG Export Plug-In . SVG Version: 6.00 Build 0)  -->
<!DOCTYPE svg PUBLIC "-//W3C//DTD SVG 1.1//EN" "http://www.w3.org/Graphics/SVG/1.1/DTD/svg11.dtd">
<svg version="1.1" id="Layer_1" xmlns="http://www.w3.org/2000/svg" xmlns:xlink="http://www.w3.org/1999/xlink" x="0px" y="0px"
	 width="300px" height="90px" viewBox="0 0 300 90" enable-background="new 0 0 300 90" xml:space="preserve">
<g>
	<g>
		<g>
			<g>
				<g>
					<path id="SVGID_7_" fill="#27B463" d="M44.908,85.402c22.313,0,40.399-18.088,40.399-40.403
						c0-22.314-18.086-40.401-40.399-40.401c-22.315,0-40.404,18.086-40.404,40.401S22.593,85.402,44.908,85.402z"/>
				</g>
			</g>
			<g>
				<path fill="#FFFFFF" d="M35.118,63.564l-9.015-5.293c-0.834-0.49-1.378-1.209-1.621-2.14c-0.243-0.929-0.117-1.825,0.374-2.657
					c0.49-0.836,1.211-1.387,2.143-1.638c0.818-0.22,1.605-0.155,2.351,0.192l0.019-5.375c-0.527-0.1-1.066-0.153-1.602-0.153
					c-0.733,0-1.489,0.099-2.243,0.292c-2.347,0.593-4.162,1.966-5.4,4.075c-1.229,2.093-1.548,4.345-0.942,6.696
					s1.983,4.172,4.089,5.412l12.582,7.381C34.85,68.203,34.602,65.922,35.118,63.564z"/>
				<path fill="#FFFFFF" d="M38.711,32.462l-9.003,5.134c-0.842,0.479-1.741,0.591-2.672,0.326
					c-0.203-0.056-0.402-0.134-0.604-0.236l-0.021,5.457c0.497,0.086,0.987,0.126,1.469,0.126c1.483,0,2.936-0.399,4.317-1.188
					l11.517-6.566l-3.352-1.916C39.77,33.26,39.212,32.879,38.711,32.462z"/>
				<path fill="#FFFFFF" d="M38.361,57.301l9.218,5.412c0.835,0.49,1.379,1.214,1.616,2.153c0.07,0.286,0.11,0.575,0.112,0.858
					l4.672-2.672c-0.673-2.072-1.987-3.695-3.908-4.824l-11.516-6.758l-0.014,3.807C38.542,55.967,38.478,56.646,38.361,57.301z"/>
				<path fill="#FFFFFF" d="M31.414,44.684l-0.039,10.508c0,0.971-0.352,1.806-1.047,2.482c-0.152,0.149-0.323,0.286-0.516,0.411
					l4.701,2.763c1.317-1.587,1.985-3.459,1.989-5.576l0.049-13.329l-3.345,1.907C32.623,44.185,32.021,44.463,31.414,44.684z"/>
				<path fill="#FFFFFF" d="M64.417,47.977c-0.81-0.218-1.617-0.33-2.398-0.33c-1.479,0-2.93,0.4-4.309,1.187l-9.942,5.683
					l3.336,1.957c0.665,0.392,1.3,0.857,1.882,1.387l7.549-4.315c0.841-0.479,1.742-0.595,2.667-0.343
					c0.924,0.255,1.639,0.811,2.117,1.652c0.479,0.84,0.599,1.742,0.351,2.674c-0.248,0.936-0.802,1.654-1.646,2.134l-16.39,9.366
					c-0.84,0.479-1.741,0.59-2.672,0.328c-0.93-0.263-1.646-0.822-2.124-1.664c-0.479-0.838-0.595-1.735-0.345-2.664
					c0.242-0.879,0.758-1.566,1.525-2.043l-4.98-2.922c-0.851,0.972-1.463,2.138-1.823,3.465c-0.633,2.342-0.346,4.6,0.855,6.709
					c1.214,2.125,3.011,3.519,5.352,4.145c0.802,0.215,1.6,0.322,2.373,0.322c1.483,0,2.94-0.398,4.326-1.191l16.34-9.337
					c2.126-1.211,3.522-3.016,4.158-5.356c0.634-2.344,0.352-4.59-0.841-6.683C68.564,50.012,66.765,48.613,64.417,47.977z"/>
				<path fill="#FFFFFF" d="M56.517,26.046l7.507,4.292c0.845,0.48,1.398,1.198,1.646,2.136c0.248,0.931,0.128,1.832-0.351,2.672
					c-0.479,0.843-1.193,1.398-2.117,1.651c-0.925,0.253-1.826,0.136-2.664-0.341l-16.393-9.369
					c-0.841-0.479-1.395-1.19-1.652-2.114c-0.033-0.126-0.06-0.254-0.08-0.383l-4.898,2.792c0.728,1.905,2.024,3.4,3.858,4.447
					l16.338,9.336c1.379,0.788,2.83,1.187,4.309,1.187c0.781,0,1.589-0.111,2.398-0.331c2.347-0.636,4.147-2.034,5.36-4.158
					c1.192-2.092,1.475-4.341,0.841-6.682c-0.636-2.344-2.032-4.146-4.158-5.357l-10.726-6.127
					C56.664,21.713,56.924,23.846,56.517,26.046z"/>
				<path fill="#FFFFFF" d="M44.262,21.191c0.841-0.479,1.742-0.595,2.663-0.343c0.928,0.254,1.64,0.809,2.118,1.65
					c0.482,0.841,0.599,1.741,0.35,2.675c-0.203,0.771-0.619,1.393-1.238,1.859l4.59,2.623c0.738-0.921,1.275-1.992,1.598-3.191
					c0.635-2.344,0.354-4.592-0.841-6.682c-1.209-2.123-3.014-3.522-5.354-4.158c-0.813-0.22-1.62-0.332-2.4-0.332
					c-1.479,0-2.929,0.4-4.308,1.188l-12.663,7.218c2.361,0.207,4.459,1.132,6.248,2.761L44.262,21.191z"/>
				<path fill="#FFFFFF" d="M24.107,45.097l0.05-0.012l0.21-0.023l0.037-10.659c0.006-0.969,0.353-1.804,1.032-2.48
					c0.679-0.673,1.511-1.014,2.473-1.014c0.982,0.005,1.82,0.351,2.508,1.031c0.646,0.642,0.993,1.423,1.026,2.324l4.657-2.657
					c-0.421-1.227-1.127-2.342-2.1-3.314c-1.713-1.718-3.806-2.595-6.21-2.603h-0.039c-2.431,0-4.527,0.866-6.239,2.574
					c-1.717,1.716-2.591,3.814-2.6,6.24l-0.05,14.563C20.179,47.169,21.941,45.837,24.107,45.097z"/>
			</g>
		</g>
	</g>
	<g>
		<g>
			<rect x="97.192" y="58.083" fill="#FFFFFF" width="198.304" height="16.046"/>
			<g>
				<path fill="#595A5C" d="M112.188,69.577v-7.119h1.333v7.119H112.188z"/>
				<path fill="#595A5C" d="M119.459,62.447h1.343v7.13h-0.834v0.01l-3.742-4.81v4.8h-1.343v-7.119h1.089l3.487,4.414V62.447z"/>
				<path fill="#595A5C" d="M126.539,64.177c-0.244-0.407-0.916-0.794-1.688-0.794c-0.997,0-1.475,0.417-1.475,0.946
					c0,0.621,0.732,0.793,1.587,0.896c1.484,0.184,2.867,0.568,2.867,2.268c0,1.586-1.403,2.267-2.989,2.267
					c-1.455,0-2.573-0.446-3.102-1.748l1.118-0.579c0.315,0.78,1.139,1.127,2.004,1.127c0.844,0,1.637-0.295,1.637-1.067
					c0-0.671-0.701-0.946-1.647-1.048c-1.454-0.172-2.797-0.559-2.797-2.155c0-1.464,1.445-2.063,2.757-2.074
					c1.108,0,2.257,0.315,2.797,1.413L126.539,64.177z"/>
				<path fill="#595A5C" d="M130.708,63.678h-2.258v-1.22c2.055,0,3.794,0,5.857,0v1.22h-2.257v5.899h-1.343L130.708,63.678
					L130.708,63.678z"/>
				<path fill="#595A5C" d="M140.178,68.234h-3.722l-0.61,1.343h-1.453l3.191-7.119h1.465l3.193,7.119h-1.464L140.178,68.234z
					 M138.315,63.953l-1.321,3.031h2.644L138.315,63.953z"/>
				<path fill="#595A5C" d="M147.531,62.447h1.343v7.13h-0.835v0.01l-3.742-4.81v4.8h-1.342v-7.119h1.088l3.488,4.414V62.447z"/>
				<path fill="#595A5C" d="M151.945,63.678h-2.259v-1.22c2.056,0,3.794,0,5.856,0v1.22h-2.258v5.899h-1.342v-5.899H151.945z"/>
				<path fill="#595A5C" d="M162.809,64.177c-0.244-0.407-0.916-0.794-1.689-0.794c-0.996,0-1.475,0.417-1.475,0.946
					c0,0.621,0.732,0.793,1.588,0.896c1.482,0.184,2.867,0.568,2.867,2.268c0,1.586-1.404,2.267-2.99,2.267
					c-1.455,0-2.572-0.446-3.102-1.748l1.117-0.579c0.316,0.78,1.141,1.127,2.004,1.127c0.844,0,1.639-0.295,1.639-1.067
					c0-0.671-0.701-0.946-1.648-1.048c-1.453-0.172-2.795-0.559-2.795-2.155c0-1.464,1.443-2.063,2.754-2.074
					c1.109,0,2.26,0.315,2.797,1.413L162.809,64.177z"/>
				<path fill="#595A5C" d="M170.445,69.577h-5.328c0-2.371,0-4.75,0-7.119h5.328v1.301h-3.996v1.638h3.854v1.25h-3.854v1.605h3.996
					V69.577z"/>
				<path fill="#595A5C" d="M177.758,68.682c-0.732,0.723-1.678,1.058-2.705,1.058c-2.645,0-3.764-1.819-3.771-3.671
					c-0.012-1.861,1.199-3.752,3.771-3.752c0.967,0,1.883,0.367,2.613,1.088l-0.896,0.865c-0.465-0.459-1.098-0.672-1.717-0.672
					c-1.721,0-2.463,1.281-2.451,2.471c0.01,1.18,0.691,2.41,2.451,2.41c0.619,0,1.322-0.254,1.789-0.722L177.758,68.682z"/>
				<path fill="#595A5C" d="M184.654,62.469v4.077c0,2.104-1.293,3.185-3.082,3.185c-1.709,0-3.162-1.037-3.162-3.185v-4.077h1.33
					v4.077c0,1.281,0.734,1.962,1.842,1.962c1.109,0,1.74-0.74,1.74-1.962v-4.077H184.654z"/>
				<path fill="#595A5C" d="M192.281,69.577h-1.596l-2.076-2.379h-1.291v2.379h-1.342v-7.13c1.127,0,2.258,0.011,3.387,0.011
					c1.678,0.01,2.563,1.129,2.563,2.358c0,0.976-0.447,1.963-1.801,2.238l2.156,2.43V69.577z M187.318,63.708v2.278h2.045
					c0.854,0,1.221-0.568,1.221-1.139c0-0.568-0.377-1.14-1.221-1.14H187.318z"/>
				<path fill="#595A5C" d="M198.141,69.577h-5.328c0-2.371,0-4.75,0-7.119h5.328v1.301h-3.996v1.638h3.854v1.25h-3.854v1.605h3.996
					V69.577L198.141,69.577z"/>
				<path fill="#595A5C" d="M203.074,63.678h-2.258v-1.22c2.053,0,3.793,0,5.855,0v1.22h-2.258v5.899h-1.342v-5.899H203.074z"/>
				<path fill="#595A5C" d="M213.803,69.577h-1.596l-2.074-2.379h-1.293v2.379h-1.342v-7.13c1.129,0,2.258,0.011,3.387,0.011
					c1.678,0.01,2.563,1.129,2.563,2.358c0,0.976-0.449,1.963-1.801,2.238l2.156,2.43V69.577L213.803,69.577z M208.84,63.708v2.278
					h2.045c0.854,0,1.221-0.568,1.221-1.139c0-0.568-0.377-1.14-1.221-1.14H208.84z"/>
				<path fill="#595A5C" d="M219.406,68.234h-3.721l-0.611,1.343h-1.453l3.191-7.119h1.465l3.193,7.119h-1.465L219.406,68.234z
					 M217.545,63.953l-1.32,3.031h2.645L217.545,63.953z"/>
				<path fill="#595A5C" d="M226.762,62.447h1.342v7.13h-0.836v0.01l-3.74-4.81v4.8h-1.344v-7.119h1.088l3.49,4.414V62.447z"/>
				<path fill="#595A5C" d="M233.84,64.177c-0.244-0.407-0.918-0.794-1.688-0.794c-0.998,0-1.479,0.417-1.479,0.946
					c0,0.621,0.734,0.793,1.588,0.896c1.484,0.184,2.867,0.568,2.867,2.268c0,1.586-1.4,2.267-2.988,2.267
					c-1.455,0-2.572-0.446-3.104-1.748l1.119-0.579c0.314,0.78,1.139,1.127,2.004,1.127c0.844,0,1.637-0.295,1.637-1.067
					c0-0.671-0.701-0.946-1.645-1.048c-1.457-0.172-2.799-0.559-2.799-2.155c0-1.464,1.443-2.063,2.756-2.074
					c1.109,0,2.258,0.315,2.797,1.413L233.84,64.177z"/>
				<path fill="#595A5C" d="M241.223,68.234H237.5l-0.609,1.343h-1.453l3.191-7.119h1.465l3.193,7.119h-1.465L241.223,68.234z
					 M239.361,63.953l-1.32,3.031h2.645L239.361,63.953z"/>
				<path fill="#595A5C" d="M249.746,68.682c-0.732,0.723-1.678,1.058-2.705,1.058c-2.645,0-3.762-1.819-3.771-3.671
					c-0.012-1.861,1.197-3.752,3.771-3.752c0.965,0,1.881,0.367,2.613,1.088l-0.895,0.865c-0.471-0.459-1.1-0.672-1.721-0.672
					c-1.719,0-2.459,1.281-2.451,2.471c0.012,1.18,0.691,2.41,2.451,2.41c0.621,0,1.322-0.254,1.791-0.722L249.746,68.682z"/>
				<path fill="#595A5C" d="M252.238,63.678h-2.258v-1.22c2.053,0,3.793,0,5.855,0v1.22h-2.258v5.899h-1.342v-5.899H252.238z"/>
				<path fill="#595A5C" d="M256.662,69.577v-7.119h1.332v7.119H256.662z"/>
				<path fill="#595A5C" d="M266.467,66.059c-0.021,1.84-1.15,3.681-3.65,3.681c-2.504,0-3.66-1.8-3.66-3.671
					s1.199-3.752,3.66-3.752C265.266,62.316,266.486,64.197,266.467,66.059z M260.477,66.088c0.029,1.169,0.662,2.419,2.34,2.419
					s2.307-1.261,2.328-2.429c0.02-1.201-0.65-2.542-2.328-2.542S260.445,64.889,260.477,66.088z"/>
				<path fill="#595A5C" d="M272.131,62.447h1.344v7.13h-0.834v0.01l-3.742-4.81v4.8h-1.342v-7.119h1.088l3.486,4.414V62.447
					L272.131,62.447z"/>
				<path fill="#595A5C" d="M279.211,64.177c-0.244-0.407-0.916-0.794-1.688-0.794c-0.998,0-1.477,0.417-1.477,0.946
					c0,0.621,0.732,0.793,1.588,0.896c1.484,0.184,2.867,0.568,2.867,2.268c0,1.586-1.402,2.267-2.988,2.267
					c-1.455,0-2.574-0.446-3.104-1.748l1.119-0.579c0.314,0.78,1.139,1.127,2.004,1.127c0.842,0,1.637-0.295,1.637-1.067
					c0-0.671-0.701-0.946-1.646-1.048c-1.455-0.172-2.797-0.559-2.797-2.155c0-1.464,1.443-2.063,2.756-2.074
					c1.107,0,2.258,0.315,2.797,1.413L279.211,64.177z"/>
			</g>
		</g>
		<g>
			<path fill="#FFFFFF" d="M117.548,41.394c-1.883,2.369-4.241,3.52-7.209,3.52c-1.602,0-3.063-0.355-4.341-1.059
				c-1.268-0.697-2.279-1.69-3.005-2.951c-0.731-1.269-1.101-2.638-1.101-4.072c0-2.229,0.779-4.073,2.381-5.633
				c1.61-1.567,3.587-2.329,6.044-2.329c3.081,0,5.441,1.146,7.216,3.502l0.503,0.667l3.717-2.312l-0.46-0.771
				c-0.718-1.201-1.606-2.208-2.642-2.991c-1.021-0.771-2.271-1.404-3.717-1.88c-1.441-0.474-2.957-0.714-4.504-0.714
				c-2.465,0-4.729,0.556-6.732,1.651c-2.014,1.101-3.619,2.654-4.771,4.62c-1.151,1.961-1.734,4.114-1.734,6.401
				c0,3.413,1.251,6.352,3.719,8.731c2.459,2.373,5.587,3.576,9.297,3.576c2.397,0,4.572-0.474,6.465-1.404
				c1.912-0.941,3.459-2.289,4.598-4.001l0.507-0.764l-3.71-2.441L117.548,41.394z"/>
			<path fill="#FFFFFF" d="M141.929,25.775c-1.422-0.932-3.064-1.405-4.883-1.405c-1.752,0-3.404,0.416-4.909,1.235
				c-0.852,0.463-1.666,1.063-2.436,1.794V16.438h-4.66v32.346h4.66v-8.988c0-2.827,0.127-4.768,0.376-5.762
				c0.387-1.498,1.166-2.72,2.384-3.737c1.197-1.001,2.512-1.486,4.018-1.486c1.279,0,2.311,0.304,3.064,0.902
				c0.757,0.604,1.293,1.542,1.594,2.787c0.127,0.535,0.278,1.813,0.278,4.868v11.417h4.659V36.537c0-3.164-0.322-5.449-0.984-6.99
				C144.413,27.978,143.35,26.708,141.929,25.775z"/>
			<path fill="#FFFFFF" d="M169.465,27.453c-0.775-0.74-1.617-1.351-2.518-1.823c-1.59-0.835-3.383-1.259-5.332-1.259
				c-3.369,0-6.291,1.229-8.684,3.652c-2.393,2.42-3.605,5.373-3.605,8.777c0,3.471,1.201,6.459,3.568,8.885
				c2.375,2.434,5.279,3.666,8.639,3.666c1.887,0,3.654-0.399,5.25-1.188c0.947-0.467,1.844-1.073,2.68-1.813v2.434h4.621V24.938
				h-4.621v2.515H169.465z M167.393,31.224c1.518,1.548,2.256,3.429,2.256,5.749c0,1.505-0.338,2.871-1.006,4.062
				c-0.662,1.179-1.623,2.129-2.855,2.824c-1.242,0.701-2.574,1.055-3.959,1.055c-1.365,0-2.66-0.354-3.854-1.057
				s-2.16-1.7-2.871-2.965c-0.713-1.271-1.074-2.616-1.074-4c0-1.397,0.357-2.743,1.064-4c0.703-1.251,1.66-2.235,2.848-2.924
				c1.186-0.688,2.502-1.038,3.908-1.038C164.064,28.93,165.879,29.68,167.393,31.224z"/>
			<path fill="#FFFFFF" d="M180.527,15.871c-0.879,0-1.646,0.321-2.279,0.957c-0.631,0.634-0.951,1.409-0.951,2.304
				c0,0.882,0.32,1.649,0.951,2.283c0.633,0.635,1.4,0.958,2.279,0.958c0.895,0,1.668-0.322,2.301-0.957
				c0.631-0.634,0.951-1.401,0.951-2.284c0-0.895-0.32-1.669-0.951-2.304C182.195,16.192,181.422,15.871,180.527,15.871z"/>
			<rect x="178.209" y="24.938" fill="#FFFFFF" width="4.66" height="23.845"/>
			<path fill="#FFFFFF" d="M203.818,25.775c-1.422-0.932-3.064-1.405-4.883-1.405c-1.768,0-3.424,0.416-4.932,1.235
				c-0.846,0.46-1.652,1.056-2.414,1.78v-2.448h-4.658v23.845h4.658v-8.988c0-2.813,0.127-4.757,0.375-5.762
				c0.389-1.498,1.168-2.72,2.385-3.737c1.197-1.001,2.514-1.486,4.02-1.486c1.281,0,2.316,0.305,3.078,0.904
				c0.77,0.608,1.281,1.517,1.568,2.792c0.133,0.533,0.289,1.811,0.289,4.861v11.417h4.658V36.537c0-3.148-0.32-5.432-0.984-6.978
				C206.305,27.981,205.238,26.708,203.818,25.775z"/>
			<path fill="#FFFFFF" d="M231.533,41.394c-1.883,2.369-4.242,3.52-7.209,3.52c-1.604,0-3.063-0.355-4.342-1.059
				c-1.268-0.697-2.277-1.69-3.004-2.951c-0.73-1.269-1.102-2.638-1.102-4.072c0-2.229,0.779-4.073,2.383-5.633
				c1.609-1.567,3.586-2.329,6.043-2.329c3.082,0,5.439,1.146,7.217,3.502l0.502,0.667l3.717-2.312l-0.461-0.771
				c-0.717-1.201-1.607-2.208-2.641-2.991c-1.021-0.771-2.271-1.404-3.717-1.88c-1.441-0.474-2.959-0.714-4.506-0.714
				c-2.463,0-4.729,0.556-6.73,1.651c-2.016,1.101-3.619,2.654-4.771,4.62c-1.15,1.961-1.734,4.114-1.734,6.401
				c0,3.413,1.252,6.352,3.721,8.731c2.457,2.373,5.586,3.576,9.295,3.576c2.398,0,4.572-0.474,6.465-1.404
				c1.914-0.941,3.459-2.289,4.598-4.001l0.508-0.764l-3.709-2.441L231.533,41.394z"/>
			<path fill="#FFFFFF" d="M250.361,24.37c-3.658,0-6.732,1.348-9.131,4.005c-2.174,2.401-3.277,5.278-3.277,8.546
				c0,3.301,1.164,6.225,3.459,8.687c2.313,2.483,5.322,3.742,8.949,3.742c3.613,0,6.619-1.259,8.932-3.742
				c2.293-2.463,3.457-5.386,3.457-8.687c0-3.281-1.102-6.164-3.277-8.567C257.072,25.711,254.006,24.37,250.361,24.37z
				 M250.352,28.971c2.104,0,3.875,0.763,5.408,2.335c1.541,1.577,2.289,3.435,2.289,5.677c0,1.426-0.35,2.773-1.039,4.005
				c-0.688,1.224-1.623,2.18-2.783,2.842c-1.168,0.665-2.473,1.003-3.875,1.003s-2.707-0.338-3.873-1.003
				c-1.162-0.662-2.1-1.618-2.785-2.841c-0.689-1.231-1.039-2.579-1.039-4.005c0-2.242,0.744-4.101,2.279-5.678
				C246.461,29.733,248.232,28.971,250.352,28.971z"/>
			<rect x="265.74" y="24.938" fill="#FFFFFF" width="4.66" height="23.845"/>
			<path fill="#FFFFFF" d="M268.061,15.871c-0.879,0-1.646,0.321-2.279,0.957c-0.631,0.634-0.949,1.409-0.949,2.304
				c0,0.882,0.318,1.649,0.949,2.283c0.633,0.635,1.4,0.958,2.279,0.958c0.895,0,1.67-0.322,2.299-0.957
				c0.633-0.634,0.953-1.401,0.953-2.284c0-0.895-0.32-1.669-0.953-2.304C269.729,16.192,268.955,15.871,268.061,15.871z"/>
			<path fill="#FFFFFF" d="M294.514,29.56c-0.678-1.577-1.74-2.852-3.162-3.784c-1.422-0.932-3.064-1.405-4.883-1.405
				c-1.766,0-3.424,0.416-4.93,1.235c-0.848,0.46-1.654,1.056-2.416,1.78v-2.448h-4.66v23.845h4.66v-8.988
				c0-2.813,0.127-4.757,0.375-5.762c0.389-1.498,1.168-2.72,2.385-3.737c1.197-1.001,2.514-1.486,4.02-1.486
				c1.281,0,2.316,0.305,3.078,0.904c0.77,0.608,1.281,1.517,1.568,2.792c0.133,0.533,0.289,1.811,0.289,4.861v11.417h4.658V36.537
				C295.496,33.388,295.174,31.105,294.514,29.56z"/>
		</g>
	</g>
</g>
</svg>
