<?xml version="1.0" encoding="UTF-8" standalone="no"?>
<!-- Generator: Adobe Illustrator 16.0.0, SVG Export Plug-In . SVG Version: 6.00 Build 0)  -->

<svg
   xmlns:dc="http://purl.org/dc/elements/1.1/"
   xmlns:cc="http://creativecommons.org/ns#"
   xmlns:rdf="http://www.w3.org/1999/02/22-rdf-syntax-ns#"
   xmlns:svg="http://www.w3.org/2000/svg"
   xmlns="http://www.w3.org/2000/svg"
   xmlns:sodipodi="http://sodipodi.sourceforge.net/DTD/sodipodi-0.dtd"
   xmlns:inkscape="http://www.inkscape.org/namespaces/inkscape"
   version="1.1"
   id="Layer_1"
   x="0px"
   y="0px"
   width="300px"
   height="90px"
   viewBox="0 0 300 90"
   enable-background="new 0 0 300 90"
   xml:space="preserve"
   sodipodi:docname="lateral.svg"
   inkscape:version="0.92.2pre0 (973e216, 2017-07-25)"><metadata
     id="metadata118"><rdf:RDF><cc:Work
         rdf:about=""><dc:format>image/svg+xml</dc:format><dc:type
           rdf:resource="http://purl.org/dc/dcmitype/StillImage" /><dc:title></dc:title></cc:Work></rdf:RDF></metadata><defs
     id="defs116" /><sodipodi:namedview
     pagecolor="#ffffff"
     bordercolor="#666666"
     borderopacity="1"
     objecttolerance="10"
     gridtolerance="10"
     guidetolerance="10"
     inkscape:pageopacity="0"
     inkscape:pageshadow="2"
     inkscape:window-width="1366"
     inkscape:window-height="732"
     id="namedview114"
     showgrid="true"
     inkscape:zoom="2.4266667"
     inkscape:cx="143.86073"
     inkscape:cy="38.374393"
     inkscape:window-x="0"
     inkscape:window-y="0"
     inkscape:window-maximized="1"
     inkscape:current-layer="Layer_1"><inkscape:grid
       type="xygrid"
       id="grid956" /></sodipodi:namedview><g
     id="g27"><g
       id="g25"><g
         id="g5"><g
           id="g3"><path
             style="fill:#27b463"
             inkscape:connector-curvature="0"
             d="m 44.908,85.402 c 22.314,0 40.4,-18.088 40.4,-40.403 0,-22.314 -18.086,-40.401 -40.4,-40.401 -22.315,0 -40.404,18.086 -40.404,40.401 -0.002,22.315 18.089,40.403 40.404,40.403 z"
             id="SVGID_5_" /></g></g><g
         id="g23"><path
           style="fill:#ffffff"
           inkscape:connector-curvature="0"
           id="path7"
           d="m 35.118,63.564 -9.015,-5.293 c -0.834,-0.49 -1.377,-1.209 -1.621,-2.14 -0.243,-0.929 -0.117,-1.825 0.374,-2.657 0.49,-0.836 1.211,-1.387 2.143,-1.638 0.818,-0.22 1.605,-0.155 2.351,0.192 l 0.019,-5.375 c -0.527,-0.1 -1.066,-0.153 -1.602,-0.153 -0.733,0 -1.489,0.099 -2.243,0.292 -2.346,0.593 -4.162,1.966 -5.4,4.075 -1.229,2.093 -1.547,4.345 -0.942,6.696 0.606,2.352 1.983,4.172 4.089,5.412 l 12.582,7.381 C 34.85,68.203 34.601,65.922 35.118,63.564 Z" /><path
           style="fill:#ffffff"
           inkscape:connector-curvature="0"
           id="path9"
           d="m 38.71,32.462 -9.003,5.134 c -0.841,0.479 -1.741,0.591 -2.672,0.326 -0.203,-0.056 -0.402,-0.134 -0.604,-0.236 l -0.021,5.457 c 0.498,0.086 0.988,0.126 1.469,0.126 1.483,0 2.935,-0.399 4.317,-1.188 L 43.713,35.515 40.361,33.599 C 39.77,33.26 39.212,32.879 38.71,32.462 Z" /><path
           style="fill:#ffffff"
           inkscape:connector-curvature="0"
           id="path11"
           d="m 38.361,57.301 9.218,5.412 c 0.835,0.49 1.379,1.214 1.616,2.153 0.071,0.286 0.11,0.575 0.113,0.858 l 4.671,-2.672 C 53.306,60.98 51.992,59.357 50.071,58.228 L 38.554,51.47 38.54,55.277 c 10e-4,0.69 -0.062,1.369 -0.179,2.024 z" /><path
           style="fill:#ffffff"
           inkscape:connector-curvature="0"
           id="path13"
           d="m 31.414,44.684 -0.04,10.508 c 0,0.971 -0.352,1.806 -1.047,2.482 -0.152,0.149 -0.322,0.286 -0.515,0.411 l 4.701,2.763 c 1.317,-1.587 1.985,-3.459 1.99,-5.576 l 0.048,-13.329 -3.345,1.907 c -0.583,0.335 -1.185,0.613 -1.792,0.834 z" /><path
           style="fill:#ffffff"
           inkscape:connector-curvature="0"
           id="path15"
           d="m 64.417,47.977 c -0.81,-0.218 -1.618,-0.33 -2.398,-0.33 -1.479,0 -2.93,0.4 -4.31,1.187 l -9.942,5.683 3.336,1.957 c 0.665,0.392 1.3,0.857 1.882,1.387 l 7.549,-4.315 c 0.841,-0.479 1.743,-0.595 2.667,-0.343 0.924,0.255 1.639,0.811 2.118,1.652 0.478,0.84 0.598,1.742 0.351,2.674 -0.249,0.936 -0.802,1.654 -1.646,2.134 l -16.39,9.366 c -0.84,0.479 -1.741,0.59 -2.672,0.328 -0.93,-0.263 -1.646,-0.822 -2.125,-1.664 -0.479,-0.838 -0.595,-1.735 -0.345,-2.664 0.242,-0.879 0.758,-1.566 1.526,-2.043 l -4.981,-2.922 c -0.85,0.972 -1.463,2.138 -1.823,3.465 -0.633,2.342 -0.347,4.6 0.855,6.709 1.213,2.125 3.01,3.519 5.351,4.145 0.802,0.215 1.6,0.322 2.374,0.322 1.483,0 2.94,-0.398 4.326,-1.191 l 16.34,-9.337 c 2.126,-1.211 3.523,-3.016 4.158,-5.356 0.634,-2.344 0.352,-4.59 -0.84,-6.683 -1.214,-2.126 -3.013,-3.525 -5.361,-4.161 z" /><path
           style="fill:#ffffff"
           inkscape:connector-curvature="0"
           id="path17"
           d="m 56.516,26.046 7.507,4.292 c 0.844,0.48 1.398,1.198 1.646,2.136 0.248,0.931 0.127,1.832 -0.351,2.672 -0.479,0.843 -1.194,1.398 -2.118,1.651 -0.924,0.253 -1.826,0.136 -2.664,-0.341 L 44.143,27.087 c -0.841,-0.479 -1.395,-1.19 -1.652,-2.114 -0.033,-0.126 -0.06,-0.254 -0.08,-0.383 l -4.898,2.792 c 0.727,1.905 2.023,3.4 3.858,4.447 l 16.337,9.336 c 1.379,0.788 2.831,1.187 4.31,1.187 0.781,0 1.589,-0.111 2.398,-0.331 2.347,-0.636 4.147,-2.034 5.36,-4.158 1.192,-2.092 1.474,-4.341 0.84,-6.682 -0.635,-2.344 -2.032,-4.146 -4.158,-5.357 L 55.733,19.697 c 0.931,2.016 1.19,4.149 0.783,6.349 z" /><path
           style="fill:#ffffff"
           inkscape:connector-curvature="0"
           id="path19"
           d="m 44.261,21.191 c 0.841,-0.479 1.743,-0.595 2.663,-0.343 0.928,0.254 1.64,0.809 2.118,1.65 0.482,0.841 0.599,1.741 0.35,2.675 -0.203,0.771 -0.619,1.393 -1.238,1.859 l 4.59,2.623 c 0.738,-0.921 1.274,-1.992 1.598,-3.191 0.634,-2.344 0.354,-4.592 -0.841,-6.682 -1.209,-2.123 -3.014,-3.522 -5.354,-4.158 -0.813,-0.22 -1.62,-0.332 -2.401,-0.332 -1.479,0 -2.929,0.4 -4.307,1.188 l -12.664,7.218 c 2.361,0.207 4.459,1.132 6.248,2.761 z" /><path
           style="fill:#ffffff"
           inkscape:connector-curvature="0"
           id="path21"
           d="m 24.107,45.097 0.05,-0.012 0.209,-0.023 0.037,-10.659 c 0.006,-0.969 0.353,-1.804 1.033,-2.48 0.678,-0.673 1.51,-1.014 2.473,-1.014 0.982,0.005 1.82,0.351 2.508,1.031 0.646,0.642 0.993,1.423 1.026,2.324 l 4.658,-2.657 C 35.68,30.38 34.974,29.265 34.001,28.293 32.289,26.575 30.195,25.698 27.792,25.69 h -0.04 c -2.431,0 -4.527,0.866 -6.239,2.574 -1.717,1.716 -2.59,3.814 -2.6,6.24 l -0.05,14.563 c 1.316,-1.898 3.078,-3.23 5.244,-3.97 z" /></g></g></g><g
     id="g109"
     transform="translate(0,12)"><g
       id="g83"><g
         id="g81" /></g><g
       id="g107"><path
         style="fill:#595a5c"
         inkscape:connector-curvature="0"
         id="path85"
         d="m 117.547,41.394 c -1.883,2.369 -4.241,3.52 -7.209,3.52 -1.602,0 -3.063,-0.355 -4.341,-1.059 -1.267,-0.697 -2.279,-1.69 -3.005,-2.951 -0.731,-1.269 -1.101,-2.638 -1.101,-4.072 0,-2.229 0.779,-4.073 2.381,-5.633 1.61,-1.567 3.587,-2.329 6.043,-2.329 3.081,0 5.441,1.146 7.216,3.502 l 0.502,0.667 3.717,-2.312 -0.46,-0.771 c -0.718,-1.201 -1.607,-2.208 -2.642,-2.991 -1.021,-0.771 -2.271,-1.404 -3.717,-1.88 -1.441,-0.474 -2.958,-0.714 -4.504,-0.714 -2.464,0 -4.729,0.556 -6.732,1.651 -2.014,1.101 -3.619,2.654 -4.772,4.62 -1.15,1.961 -1.734,4.114 -1.734,6.401 0,3.413 1.252,6.352 3.72,8.731 2.459,2.373 5.586,3.576 9.296,3.576 2.397,0 4.572,-0.474 6.465,-1.404 1.913,-0.941 3.459,-2.289 4.598,-4.001 l 0.507,-0.764 -3.71,-2.441 z" /><path
         style="fill:#595a5c"
         inkscape:connector-curvature="0"
         id="path87"
         d="m 141.928,25.775 c -1.421,-0.932 -3.064,-1.405 -4.883,-1.405 -1.752,0 -3.404,0.416 -4.909,1.235 -0.852,0.463 -1.666,1.063 -2.436,1.794 V 16.438 h -4.66 v 32.346 h 4.66 v -8.988 c 0,-2.827 0.127,-4.768 0.376,-5.762 0.387,-1.498 1.166,-2.72 2.383,-3.737 1.197,-1.001 2.512,-1.486 4.019,-1.486 1.279,0 2.311,0.304 3.064,0.902 0.757,0.604 1.293,1.542 1.593,2.787 0.127,0.535 0.279,1.813 0.279,4.868 v 11.417 h 4.66 V 36.537 c 0,-3.164 -0.322,-5.449 -0.985,-6.99 -0.676,-1.569 -1.74,-2.839 -3.161,-3.772 z" /><path
         style="fill:#595a5c"
         inkscape:connector-curvature="0"
         id="path89"
         d="m 169.465,27.453 c -0.775,-0.74 -1.617,-1.351 -2.518,-1.823 -1.59,-0.835 -3.385,-1.259 -5.332,-1.259 -3.369,0 -6.291,1.229 -8.684,3.652 -2.393,2.42 -3.605,5.373 -3.605,8.777 0,3.471 1.201,6.459 3.568,8.885 2.375,2.434 5.279,3.666 8.639,3.666 1.887,0 3.652,-0.399 5.25,-1.188 0.947,-0.467 1.844,-1.073 2.68,-1.813 v 2.434 h 4.619 V 24.938 h -4.619 v 2.515 z m -2.072,3.771 c 1.518,1.548 2.256,3.429 2.256,5.749 0,1.505 -0.338,2.871 -1.006,4.062 -0.662,1.179 -1.623,2.129 -2.855,2.824 -1.244,0.701 -2.576,1.055 -3.959,1.055 -1.365,0 -2.66,-0.354 -3.854,-1.057 -1.194,-0.703 -2.16,-1.7 -2.871,-2.965 -0.713,-1.271 -1.074,-2.616 -1.074,-4 0,-1.397 0.357,-2.743 1.064,-4 0.703,-1.251 1.66,-2.235 2.846,-2.924 1.188,-0.688 2.504,-1.038 3.908,-1.038 2.216,0 4.029,0.75 5.545,2.294 z" /><path
         style="fill:#595a5c"
         inkscape:connector-curvature="0"
         id="path91"
         d="m 180.527,15.871 c -0.879,0 -1.646,0.321 -2.279,0.957 -0.631,0.634 -0.951,1.409 -0.951,2.304 0,0.882 0.32,1.649 0.951,2.283 0.633,0.635 1.398,0.958 2.279,0.958 0.895,0 1.668,-0.322 2.299,-0.957 0.633,-0.634 0.953,-1.401 0.953,-2.284 0,-0.895 -0.32,-1.669 -0.951,-2.304 -0.633,-0.636 -1.406,-0.957 -2.301,-0.957 z" /><rect
         style="fill:#595a5c"
         id="rect93"
         height="23.844999"
         width="4.658"
         y="24.938"
         x="178.209" /><path
         style="fill:#595a5c"
         inkscape:connector-curvature="0"
         id="path95"
         d="m 203.818,25.775 c -1.422,-0.932 -3.064,-1.405 -4.883,-1.405 -1.768,0 -3.426,0.416 -4.932,1.235 -0.846,0.46 -1.652,1.056 -2.414,1.78 v -2.448 h -4.658 v 23.845 h 4.658 v -8.988 c 0,-2.813 0.127,-4.757 0.377,-5.762 0.387,-1.498 1.164,-2.72 2.383,-3.737 1.197,-1.001 2.512,-1.486 4.02,-1.486 1.281,0 2.316,0.305 3.078,0.904 0.77,0.608 1.281,1.517 1.568,2.792 0.131,0.533 0.289,1.811 0.289,4.861 v 11.417 h 4.658 V 36.537 c 0,-3.148 -0.32,-5.432 -0.984,-6.978 -0.673,-1.578 -1.74,-2.851 -3.16,-3.784 z" /><path
         style="fill:#595a5c"
         inkscape:connector-curvature="0"
         id="path97"
         d="m 231.533,41.394 c -1.883,2.369 -4.242,3.52 -7.209,3.52 -1.604,0 -3.063,-0.355 -4.342,-1.059 -1.268,-0.697 -2.277,-1.69 -3.004,-2.951 -0.73,-1.269 -1.102,-2.638 -1.102,-4.072 0,-2.229 0.777,-4.073 2.383,-5.633 1.607,-1.567 3.586,-2.329 6.043,-2.329 3.08,0 5.439,1.146 7.217,3.502 l 0.502,0.667 3.717,-2.312 -0.461,-0.771 c -0.717,-1.201 -1.607,-2.208 -2.641,-2.991 -1.021,-0.771 -2.271,-1.404 -3.717,-1.88 -1.441,-0.474 -2.959,-0.714 -4.506,-0.714 -2.463,0 -4.729,0.556 -6.73,1.651 -2.016,1.101 -3.619,2.654 -4.771,4.62 -1.15,1.961 -1.734,4.114 -1.734,6.401 0,3.413 1.252,6.352 3.719,8.731 2.459,2.373 5.588,3.576 9.297,3.576 2.396,0 4.572,-0.474 6.465,-1.404 1.914,-0.941 3.459,-2.289 4.598,-4.001 l 0.508,-0.764 -3.709,-2.441 z" /><path
         style="fill:#595a5c"
         inkscape:connector-curvature="0"
         id="path99"
         d="m 250.361,24.37 c -3.66,0 -6.732,1.348 -9.131,4.005 -2.176,2.401 -3.277,5.278 -3.277,8.546 0,3.301 1.164,6.225 3.459,8.687 2.313,2.483 5.322,3.742 8.949,3.742 3.613,0 6.619,-1.259 8.93,-3.742 2.295,-2.463 3.459,-5.386 3.459,-8.687 0,-3.281 -1.102,-6.164 -3.277,-8.567 -2.401,-2.643 -5.467,-3.984 -9.112,-3.984 z m -0.009,4.601 c 2.104,0 3.875,0.763 5.408,2.335 1.541,1.577 2.289,3.435 2.289,5.677 0,1.426 -0.35,2.773 -1.041,4.005 -0.686,1.224 -1.621,2.18 -2.783,2.842 -1.168,0.665 -2.471,1.003 -3.873,1.003 -1.404,0 -2.707,-0.338 -3.873,-1.003 -1.162,-0.662 -2.1,-1.618 -2.785,-2.841 -0.689,-1.231 -1.041,-2.579 -1.041,-4.005 0,-2.242 0.746,-4.101 2.281,-5.678 1.527,-1.573 3.298,-2.335 5.418,-2.335 z" /><rect
         style="fill:#595a5c"
         id="rect101"
         height="23.844999"
         width="4.6599998"
         y="24.938"
         x="265.73999" /><path
         style="fill:#595a5c"
         inkscape:connector-curvature="0"
         id="path103"
         d="m 268.061,15.871 c -0.879,0 -1.646,0.321 -2.279,0.957 -0.631,0.634 -0.951,1.409 -0.951,2.304 0,0.882 0.32,1.649 0.951,2.283 0.633,0.635 1.398,0.958 2.279,0.958 0.895,0 1.668,-0.322 2.299,-0.957 0.633,-0.634 0.953,-1.401 0.953,-2.284 0,-0.895 -0.32,-1.669 -0.953,-2.304 -0.631,-0.636 -1.407,-0.957 -2.299,-0.957 z" /><path
         style="fill:#595a5c"
         inkscape:connector-curvature="0"
         id="path105"
         d="m 294.512,29.56 c -0.676,-1.577 -1.74,-2.852 -3.16,-3.784 -1.422,-0.932 -3.064,-1.405 -4.883,-1.405 -1.768,0 -3.426,0.416 -4.932,1.235 -0.846,0.46 -1.652,1.056 -2.414,1.78 v -2.448 h -4.66 v 23.845 h 4.66 v -8.988 c 0,-2.813 0.127,-4.757 0.375,-5.762 0.389,-1.498 1.166,-2.72 2.385,-3.737 1.197,-1.001 2.514,-1.486 4.02,-1.486 1.281,0 2.316,0.305 3.078,0.904 0.77,0.608 1.281,1.517 1.568,2.792 0.133,0.533 0.289,1.811 0.289,4.861 v 11.417 h 4.658 V 36.537 c 0,-3.149 -0.322,-5.432 -0.984,-6.977 z" /></g></g></svg>