<?xml version="1.0" encoding="UTF-8" standalone="no"?>
<!-- Generator: Adobe Illustrator 16.0.0, SVG Export Plug-In . SVG Version: 6.00 Build 0)  -->

<svg
   xmlns:dc="http://purl.org/dc/elements/1.1/"
   xmlns:cc="http://creativecommons.org/ns#"
   xmlns:rdf="http://www.w3.org/1999/02/22-rdf-syntax-ns#"
   xmlns:svg="http://www.w3.org/2000/svg"
   xmlns="http://www.w3.org/2000/svg"
   xmlns:sodipodi="http://sodipodi.sourceforge.net/DTD/sodipodi-0.dtd"
   xmlns:inkscape="http://www.inkscape.org/namespaces/inkscape"
   version="1.1"
   id="Layer_1"
   x="0px"
   y="0px"
   width="276.87601"
   height="214.94"
   viewBox="0 0 276.87601 214.94"
   enable-background="new 0 0 300 280"
   xml:space="preserve"
   sodipodi:docname="simple-logo.svg"
   inkscape:version="0.92.2pre0 (973e216, 2017-07-25)"><metadata
     id="metadata116"><rdf:RDF><cc:Work
         rdf:about=""><dc:format>image/svg+xml</dc:format><dc:type
           rdf:resource="http://purl.org/dc/dcmitype/StillImage" /><dc:title></dc:title></cc:Work></rdf:RDF></metadata><defs
     id="defs114" /><sodipodi:namedview
     pagecolor="#ffffff"
     bordercolor="#666666"
     borderopacity="1"
     objecttolerance="10"
     gridtolerance="10"
     guidetolerance="10"
     inkscape:pageopacity="0"
     inkscape:pageshadow="2"
     inkscape:window-width="1366"
     inkscape:window-height="732"
     id="namedview112"
     showgrid="false"
     fit-margin-top="1"
     fit-margin-left="1"
     fit-margin-right="1"
     fit-margin-bottom="1"
     inkscape:zoom="1"
     inkscape:cx="227.30297"
     inkscape:cy="30.818588"
     inkscape:window-x="0"
     inkscape:window-y="0"
     inkscape:window-maximized="1"
     inkscape:current-layer="Layer_1" /><g
     id="g109"
     transform="translate(-11.562,-15.358)"><g
       id="g27"><g
         id="g25"><g
           id="g5"><g
             id="g3"><path
               id="SVGID_1_"
               d="m 150.004,163.309 c 40.58,0 73.47,-32.894 73.47,-73.477 0,-40.581 -32.891,-73.474 -73.47,-73.474 -40.58,0 -73.478,32.893 -73.478,73.474 0.001,40.583 32.898,73.477 73.478,73.477 z"
               inkscape:connector-curvature="0"
               style="fill:#27b463" /></g></g><g
           id="g23"><path
             d="m 132.202,123.597 -16.396,-9.627 c -1.517,-0.89 -2.504,-2.199 -2.947,-3.89 -0.44,-1.69 -0.213,-3.32 0.681,-4.833 0.892,-1.52 2.202,-2.521 3.896,-2.977 1.489,-0.399 2.92,-0.282 4.275,0.35 l 0.034,-9.772 c -0.959,-0.184 -1.939,-0.28 -2.913,-0.28 -1.333,0 -2.708,0.178 -4.08,0.53 -4.267,1.079 -7.568,3.576 -9.82,7.41 -2.236,3.807 -2.813,7.903 -1.713,12.178 1.101,4.278 3.605,7.589 7.436,9.841 l 22.882,13.426 c -1.823,-3.923 -2.275,-8.071 -1.335,-12.356 z"
             id="path7"
             inkscape:connector-curvature="0"
             style="fill:#ffffff" /><path
             d="m 138.735,67.033 -16.372,9.334 c -1.528,0.873 -3.167,1.075 -4.858,0.595 -0.369,-0.102 -0.732,-0.245 -1.098,-0.432 l -0.039,9.924 c 0.904,0.156 1.796,0.23 2.672,0.23 2.696,0 5.337,-0.727 7.851,-2.16 l 20.944,-11.943 -6.096,-3.482 c -1.076,-0.614 -2.092,-1.308 -3.004,-2.066 z"
             id="path9"
             inkscape:connector-curvature="0"
             style="fill:#ffffff" /><path
             d="m 138.101,112.204 16.765,9.843 c 1.518,0.89 2.508,2.208 2.938,3.916 0.129,0.522 0.199,1.047 0.205,1.562 l 8.494,-4.858 c -1.223,-3.769 -3.613,-6.721 -7.105,-8.774 l -20.944,-12.293 -0.026,6.924 c -0.001,1.254 -0.116,2.49 -0.327,3.68 z"
             id="path11"
             inkscape:connector-curvature="0"
             style="fill:#ffffff" /><path
             d="m 125.466,89.259 -0.073,19.11 c 0,1.766 -0.639,3.284 -1.903,4.516 -0.275,0.271 -0.586,0.519 -0.937,0.748 l 8.548,5.022 c 2.396,-2.885 3.61,-6.293 3.619,-10.141 l 0.088,-24.239 -6.083,3.469 c -1.061,0.606 -2.155,1.114 -3.259,1.515 z"
             id="path13"
             inkscape:connector-curvature="0"
             style="fill:#ffffff" /><path
             d="m 185.485,95.248 c -1.473,-0.396 -2.941,-0.601 -4.362,-0.601 -2.688,0 -5.327,0.727 -7.836,2.157 l -18.08,10.335 6.065,3.556 c 1.209,0.713 2.363,1.561 3.424,2.522 l 13.728,-7.847 c 1.529,-0.87 3.169,-1.081 4.851,-0.623 1.68,0.464 2.979,1.474 3.851,3.006 0.87,1.527 1.089,3.166 0.64,4.864 -0.453,1.701 -1.459,3.006 -2.996,3.879 l -29.806,17.033 c -1.526,0.872 -3.166,1.072 -4.858,0.597 -1.69,-0.478 -2.994,-1.497 -3.863,-3.026 -0.871,-1.524 -1.081,-3.155 -0.627,-4.844 0.441,-1.598 1.38,-2.849 2.774,-3.715 l -9.058,-5.316 c -1.546,1.768 -2.66,3.889 -3.315,6.303 -1.151,4.258 -0.63,8.364 1.556,12.198 2.207,3.865 5.476,6.401 9.731,7.54 1.458,0.391 2.908,0.586 4.316,0.586 2.696,0 5.347,-0.727 7.866,-2.166 l 29.715,-16.981 c 3.867,-2.203 6.406,-5.483 7.563,-9.742 1.152,-4.261 0.641,-8.347 -1.527,-12.151 -2.211,-3.864 -5.484,-6.407 -9.752,-7.564 z"
             id="path15"
             inkscape:connector-curvature="0"
             style="fill:#ffffff" /><path
             d="m 171.116,55.366 13.65,7.805 c 1.536,0.874 2.543,2.179 2.996,3.883 0.449,1.694 0.23,3.331 -0.64,4.86 -0.87,1.532 -2.171,2.544 -3.851,3.003 -1.682,0.46 -3.32,0.247 -4.845,-0.621 L 148.614,57.258 c -1.529,-0.871 -2.537,-2.166 -3.006,-3.847 -0.06,-0.228 -0.107,-0.46 -0.145,-0.694 l -8.909,5.078 c 1.322,3.465 3.68,6.183 7.016,8.087 l 29.712,16.979 c 2.509,1.433 5.146,2.156 7.836,2.156 1.421,0 2.891,-0.203 4.361,-0.603 4.269,-1.153 7.543,-3.698 9.748,-7.56 2.17,-3.804 2.682,-7.896 1.528,-12.152 -1.155,-4.261 -3.694,-7.538 -7.563,-9.741 L 169.69,43.817 c 1.695,3.669 2.166,7.547 1.426,11.549 z"
             id="path17"
             inkscape:connector-curvature="0"
             style="fill:#ffffff" /><path
             d="m 148.83,46.536 c 1.528,-0.871 3.168,-1.081 4.842,-0.623 1.688,0.461 2.981,1.47 3.853,3.003 0.877,1.53 1.088,3.165 0.637,4.863 -0.368,1.4 -1.125,2.533 -2.251,3.381 l 8.347,4.77 c 1.344,-1.674 2.318,-3.623 2.905,-5.805 1.153,-4.262 0.644,-8.35 -1.529,-12.15 -2.198,-3.86 -5.479,-6.406 -9.737,-7.561 -1.478,-0.4 -2.944,-0.603 -4.365,-0.603 -2.688,0 -5.326,0.727 -7.833,2.16 L 120.67,51.097 c 4.294,0.376 8.109,2.058 11.362,5.021 z"
             id="path19"
             inkscape:connector-curvature="0"
             style="fill:#ffffff" /><path
             d="m 112.18,90.009 0.092,-0.02 0.38,-0.045 0.067,-19.384 c 0.011,-1.763 0.642,-3.28 1.878,-4.51 1.234,-1.225 2.747,-1.846 4.497,-1.846 1.785,0.009 3.309,0.638 4.561,1.875 1.176,1.167 1.807,2.588 1.865,4.227 l 8.472,-4.832 c -0.767,-2.229 -2.052,-4.258 -3.819,-6.027 -3.114,-3.125 -6.92,-4.718 -11.292,-4.733 h -0.072 c -4.42,0 -8.232,1.574 -11.347,4.682 -3.122,3.12 -4.71,6.938 -4.728,11.349 l -0.091,26.482 c 2.391,-3.449 5.598,-5.87 9.537,-7.218 z"
             id="path21"
             inkscape:connector-curvature="0"
             style="fill:#ffffff" /></g></g></g><g
       id="g83"><g
         id="g81" /></g><g
       id="g107"><path
         d="m 40.778,218.266 c -2.608,3.283 -5.878,4.881 -9.992,4.881 -2.221,0 -4.246,-0.494 -6.018,-1.469 -1.756,-0.967 -3.158,-2.342 -4.165,-4.09 -1.013,-1.76 -1.524,-3.658 -1.524,-5.646 0,-3.092 1.08,-5.646 3.301,-7.809 2.231,-2.172 4.972,-3.229 8.377,-3.229 4.271,0 7.542,1.586 10.002,4.854 l 0.696,0.924 5.151,-3.203 -0.638,-1.068 c -0.995,-1.664 -2.228,-3.061 -3.661,-4.145 -1.415,-1.07 -3.147,-1.947 -5.152,-2.605 -1.997,-0.656 -4.1,-0.99 -6.243,-0.99 -3.416,0 -6.557,0.771 -9.332,2.287 -2.792,1.527 -5.018,3.682 -6.614,6.404 -1.595,2.719 -2.404,5.705 -2.404,8.875 0,4.73 1.735,8.803 5.155,12.104 3.409,3.289 7.744,4.955 12.886,4.955 3.323,0 6.338,-0.654 8.962,-1.945 2.651,-1.307 4.794,-3.174 6.372,-5.547 l 0.703,-1.061 -5.143,-3.383 z"
         id="path85"
         inkscape:connector-curvature="0"
         style="fill:#595a5c" /><path
         d="m 74.571,196.617 c -1.97,-1.291 -4.246,-1.945 -6.768,-1.945 -2.428,0 -4.718,0.574 -6.805,1.713 -1.181,0.641 -2.31,1.473 -3.375,2.484 v -15.193 h -6.459 v 44.836 h 6.459 v -12.459 c 0,-3.918 0.176,-6.609 0.521,-7.988 0.537,-2.076 1.617,-3.77 3.305,-5.18 1.658,-1.389 3.48,-2.063 5.569,-2.063 1.773,0 3.202,0.422 4.248,1.252 1.049,0.836 1.792,2.137 2.208,3.863 0.176,0.74 0.386,2.512 0.386,6.748 v 15.824 h 6.459 v -16.975 c 0,-4.385 -0.446,-7.555 -1.364,-9.688 -0.939,-2.174 -2.413,-3.936 -4.384,-5.229 z"
         id="path87"
         inkscape:connector-curvature="0"
         style="fill:#595a5c" /><path
         d="m 112.742,198.943 c -1.076,-1.027 -2.242,-1.873 -3.49,-2.527 -2.203,-1.156 -4.69,-1.744 -7.392,-1.744 -4.669,0 -8.719,1.703 -12.036,5.061 -3.314,3.355 -4.995,7.449 -4.995,12.168 0,4.811 1.665,8.953 4.945,12.314 3.291,3.373 7.318,5.082 11.974,5.082 2.615,0 5.064,-0.555 7.278,-1.646 1.313,-0.646 2.555,-1.488 3.715,-2.514 v 3.373 h 6.402 v -33.053 h -6.402 z m -2.873,5.227 c 2.103,2.146 3.126,4.754 3.126,7.969 0,2.086 -0.47,3.98 -1.394,5.631 -0.917,1.635 -2.25,2.951 -3.959,3.914 -1.723,0.971 -3.568,1.463 -5.487,1.463 -1.892,0 -3.688,-0.492 -5.341,-1.465 -1.655,-0.973 -2.995,-2.355 -3.979,-4.109 -0.99,-1.762 -1.491,-3.627 -1.491,-5.545 0,-1.938 0.497,-3.803 1.477,-5.545 0.976,-1.734 2.304,-3.098 3.946,-4.053 1.646,-0.953 3.469,-1.439 5.417,-1.439 3.073,-0.001 5.586,1.038 7.685,3.179 z"
         id="path89"
         inkscape:connector-curvature="0"
         style="fill:#595a5c" /><path
         d="m 128.077,182.889 c -1.221,0 -2.283,0.445 -3.16,1.326 -0.875,0.879 -1.318,1.953 -1.318,3.193 0,1.223 0.444,2.287 1.318,3.164 0.876,0.881 1.938,1.328 3.16,1.328 1.238,0 2.312,-0.447 3.187,-1.326 0.875,-0.879 1.319,-1.943 1.319,-3.166 0,-1.238 -0.444,-2.314 -1.318,-3.193 -0.877,-0.879 -1.95,-1.326 -3.188,-1.326 z"
         id="path91"
         inkscape:connector-curvature="0"
         style="fill:#595a5c" /><rect
         x="124.861"
         y="195.457"
         width="6.4590001"
         height="33.055"
         id="rect93"
         style="fill:#595a5c" /><path
         d="m 160.358,196.617 c -1.969,-1.291 -4.246,-1.945 -6.769,-1.945 -2.446,0 -4.746,0.574 -6.832,1.713 -1.174,0.637 -2.292,1.463 -3.348,2.469 v -3.396 h -6.458 v 33.055 h 6.458 v -12.459 c 0,-3.9 0.176,-6.596 0.521,-7.988 0.536,-2.076 1.616,-3.77 3.303,-5.18 1.66,-1.389 3.482,-2.063 5.572,-2.063 1.775,0 3.211,0.422 4.266,1.256 1.066,0.844 1.777,2.102 2.176,3.869 0.184,0.738 0.398,2.508 0.398,6.738 v 15.824 h 6.459 v -16.975 c 0,-4.365 -0.445,-7.527 -1.363,-9.672 -0.935,-2.185 -2.412,-3.953 -4.383,-5.246 z"
         id="path95"
         inkscape:connector-curvature="0"
         style="fill:#595a5c" /><path
         d="m 198.776,218.266 c -2.61,3.283 -5.879,4.881 -9.993,4.881 -2.222,0 -4.245,-0.494 -6.017,-1.469 -1.758,-0.967 -3.158,-2.342 -4.166,-4.09 -1.013,-1.76 -1.524,-3.658 -1.524,-5.646 0,-3.092 1.079,-5.646 3.301,-7.809 2.231,-2.172 4.974,-3.229 8.378,-3.229 4.271,0 7.542,1.586 10.002,4.854 l 0.696,0.924 5.151,-3.203 -0.638,-1.068 c -0.995,-1.664 -2.229,-3.061 -3.661,-4.145 -1.414,-1.07 -3.147,-1.947 -5.15,-2.605 -2,-0.656 -4.1,-0.99 -6.244,-0.99 -3.416,0 -6.557,0.771 -9.332,2.287 -2.792,1.527 -5.018,3.682 -6.614,6.404 -1.596,2.719 -2.403,5.705 -2.403,8.875 0,4.73 1.733,8.803 5.154,12.104 3.408,3.289 7.744,4.955 12.887,4.955 3.322,0 6.338,-0.654 8.961,-1.945 2.651,-1.307 4.795,-3.174 6.373,-5.547 l 0.703,-1.061 -5.143,-3.383 z"
         id="path97"
         inkscape:connector-curvature="0"
         style="fill:#595a5c" /><path
         d="m 224.876,194.672 c -5.073,0 -9.332,1.867 -12.657,5.551 -3.015,3.33 -4.543,7.314 -4.543,11.846 0,4.576 1.612,8.627 4.794,12.041 3.203,3.441 7.379,5.188 12.406,5.188 5.009,0 9.174,-1.744 12.378,-5.188 3.181,-3.414 4.794,-7.467 4.794,-12.041 0,-4.549 -1.527,-8.543 -4.545,-11.875 -3.326,-3.665 -7.575,-5.522 -12.627,-5.522 z m -0.014,6.375 c 2.916,0 5.369,1.059 7.496,3.236 2.137,2.188 3.175,4.762 3.175,7.869 0,1.977 -0.486,3.844 -1.444,5.553 -0.949,1.695 -2.249,3.021 -3.857,3.938 -1.619,0.922 -3.426,1.391 -5.369,1.391 -1.945,0 -3.752,-0.469 -5.369,-1.391 -1.609,-0.918 -2.908,-2.242 -3.858,-3.938 -0.958,-1.707 -1.442,-3.574 -1.442,-5.553 0,-3.107 1.033,-5.684 3.16,-7.871 2.114,-2.177 4.571,-3.234 7.508,-3.234 z"
         id="path99"
         inkscape:connector-curvature="0"
         style="fill:#595a5c" /><rect
         x="246.192"
         y="195.457"
         width="6.4590001"
         height="33.055"
         id="rect101"
         style="fill:#595a5c" /><path
         d="m 249.408,182.889 c -1.22,0 -2.283,0.445 -3.159,1.326 -0.875,0.879 -1.318,1.953 -1.318,3.193 0,1.223 0.443,2.287 1.318,3.164 0.875,0.881 1.938,1.328 3.159,1.328 1.237,0 2.313,-0.447 3.187,-1.326 0.877,-0.879 1.319,-1.943 1.319,-3.166 0,-1.238 -0.442,-2.314 -1.319,-3.193 -0.875,-0.879 -1.948,-1.326 -3.187,-1.326 z"
         id="path103"
         inkscape:connector-curvature="0"
         style="fill:#595a5c" /><path
         d="m 286.073,201.863 c -0.938,-2.188 -2.412,-3.953 -4.383,-5.246 -1.969,-1.291 -4.246,-1.945 -6.769,-1.945 -2.446,0 -4.746,0.574 -6.832,1.713 -1.174,0.637 -2.293,1.463 -3.349,2.469 v -3.396 h -6.458 v 33.055 h 6.458 v -12.459 c 0,-3.9 0.177,-6.596 0.521,-7.988 0.537,-2.076 1.617,-3.77 3.306,-5.18 1.66,-1.389 3.481,-2.063 5.57,-2.063 1.775,0 3.211,0.422 4.266,1.256 1.067,0.844 1.777,2.102 2.176,3.869 0.183,0.738 0.4,2.508 0.4,6.738 v 15.824 h 6.459 v -16.975 c 0,-4.365 -0.446,-7.527 -1.365,-9.672 z"
         id="path105"
         inkscape:connector-curvature="0"
         style="fill:#595a5c" /></g></g></svg>