<?xml version="1.0" encoding="UTF-8" standalone="no"?>
<!-- Created with Inkscape (http://www.inkscape.org/) -->

<svg
   xmlns:dc="http://purl.org/dc/elements/1.1/"
   xmlns:cc="http://creativecommons.org/ns#"
   xmlns:rdf="http://www.w3.org/1999/02/22-rdf-syntax-ns#"
   xmlns:svg="http://www.w3.org/2000/svg"
   xmlns="http://www.w3.org/2000/svg"
   xmlns:sodipodi="http://sodipodi.sourceforge.net/DTD/sodipodi-0.dtd"
   xmlns:inkscape="http://www.inkscape.org/namespaces/inkscape"
   width="40.87999mm"
   height="40.880783mm"
   viewBox="0 0 40.87999 40.880783"
   version="1.1"
   id="svg3857"
   inkscape:version="0.92.2pre0 (973e216, 2017-07-25)"
   sodipodi:docname="new.svg">
  <defs
     id="defs3851" />
  <sodipodi:namedview
     id="base"
     pagecolor="#ffffff"
     bordercolor="#666666"
     borderopacity="1.0"
     inkscape:pageopacity="0.0"
     inkscape:pageshadow="2"
     inkscape:zoom="2.8"
     inkscape:cx="107.14406"
     inkscape:cy="76.407883"
     inkscape:document-units="mm"
     inkscape:current-layer="layer1"
     showgrid="false"
     fit-margin-top="1"
     fit-margin-left="1"
     fit-margin-right="1"
     fit-margin-bottom="1"
     inkscape:window-width="1366"
     inkscape:window-height="740"
     inkscape:window-x="0"
     inkscape:window-y="0"
     inkscape:window-maximized="1" />
  <metadata
     id="metadata3854">
    <rdf:RDF>
      <cc:Work
         rdf:about="">
        <dc:format>image/svg+xml</dc:format>
        <dc:type
           rdf:resource="http://purl.org/dc/dcmitype/StillImage" />
        <dc:title></dc:title>
      </cc:Work>
    </rdf:RDF>
  </metadata>
  <g
     inkscape:label="Camada 1"
     inkscape:groupmode="layer"
     id="layer1"
     transform="translate(-32.476671,-33.898893)">
    <g
       transform="matrix(0.26458333,0,0,0.26458333,13.229167,30.570839)"
       id="g27">
      <g
         id="g25">
        <g
           id="g5">
          <g
             id="g3">
            <path
               style="fill:#27b463"
               inkscape:connector-curvature="0"
               id="SVGID_1_"
               d="m 150.004,163.309 c 40.58,0 73.47,-32.894 73.47,-73.477 0,-40.581 -32.891,-73.474 -73.47,-73.474 -40.58,0 -73.478,32.893 -73.478,73.474 0.001,40.583 32.898,73.477 73.478,73.477 z" />
          </g>
        </g>
        <g
           id="g23">
          <path
             style="fill:#ffffff"
             inkscape:connector-curvature="0"
             d="m 132.202,123.597 -16.396,-9.627 c -1.517,-0.89 -2.504,-2.199 -2.947,-3.89 -0.44,-1.69 -0.213,-3.32 0.681,-4.833 0.892,-1.52 2.202,-2.521 3.896,-2.977 1.489,-0.399 2.92,-0.282 4.275,0.35 l 0.034,-9.772 c -0.959,-0.184 -1.939,-0.28 -2.913,-0.28 -1.333,0 -2.708,0.178 -4.08,0.53 -4.267,1.079 -7.568,3.576 -9.82,7.41 -2.236,3.807 -2.813,7.903 -1.713,12.178 1.101,4.278 3.605,7.589 7.436,9.841 l 22.882,13.426 c -1.823,-3.923 -2.275,-8.071 -1.335,-12.356 z"
             id="path7" />
          <path
             style="fill:#ffffff"
             inkscape:connector-curvature="0"
             d="m 138.735,67.033 -16.372,9.334 c -1.528,0.873 -3.167,1.075 -4.858,0.595 -0.369,-0.102 -0.732,-0.245 -1.098,-0.432 l -0.039,9.924 c 0.904,0.156 1.796,0.23 2.672,0.23 2.696,0 5.337,-0.727 7.851,-2.16 l 20.944,-11.943 -6.096,-3.482 c -1.076,-0.614 -2.092,-1.308 -3.004,-2.066 z"
             id="path9" />
          <path
             style="fill:#ffffff"
             inkscape:connector-curvature="0"
             d="m 138.101,112.204 16.765,9.843 c 1.518,0.89 2.508,2.208 2.938,3.916 0.129,0.522 0.199,1.047 0.205,1.562 l 8.494,-4.858 c -1.223,-3.769 -3.613,-6.721 -7.105,-8.774 l -20.944,-12.293 -0.026,6.924 c -0.001,1.254 -0.116,2.49 -0.327,3.68 z"
             id="path11" />
          <path
             style="fill:#ffffff"
             inkscape:connector-curvature="0"
             d="m 125.466,89.259 -0.073,19.11 c 0,1.766 -0.639,3.284 -1.903,4.516 -0.275,0.271 -0.586,0.519 -0.937,0.748 l 8.548,5.022 c 2.396,-2.885 3.61,-6.293 3.619,-10.141 l 0.088,-24.239 -6.083,3.469 c -1.061,0.606 -2.155,1.114 -3.259,1.515 z"
             id="path13" />
          <path
             style="fill:#ffffff"
             inkscape:connector-curvature="0"
             d="m 185.485,95.248 c -1.473,-0.396 -2.941,-0.601 -4.362,-0.601 -2.688,0 -5.327,0.727 -7.836,2.157 l -18.08,10.335 6.065,3.556 c 1.209,0.713 2.363,1.561 3.424,2.522 l 13.728,-7.847 c 1.529,-0.87 3.169,-1.081 4.851,-0.623 1.68,0.464 2.979,1.474 3.851,3.006 0.87,1.527 1.089,3.166 0.64,4.864 -0.453,1.701 -1.459,3.006 -2.996,3.879 l -29.806,17.033 c -1.526,0.872 -3.166,1.072 -4.858,0.597 -1.69,-0.478 -2.994,-1.497 -3.863,-3.026 -0.871,-1.524 -1.081,-3.155 -0.627,-4.844 0.441,-1.598 1.38,-2.849 2.774,-3.715 l -9.058,-5.316 c -1.546,1.768 -2.66,3.889 -3.315,6.303 -1.151,4.258 -0.63,8.364 1.556,12.198 2.207,3.865 5.476,6.401 9.731,7.54 1.458,0.391 2.908,0.586 4.316,0.586 2.696,0 5.347,-0.727 7.866,-2.166 l 29.715,-16.981 c 3.867,-2.203 6.406,-5.483 7.563,-9.742 1.152,-4.261 0.641,-8.347 -1.527,-12.151 -2.211,-3.864 -5.484,-6.407 -9.752,-7.564 z"
             id="path15" />
          <path
             style="fill:#ffffff"
             inkscape:connector-curvature="0"
             d="m 171.116,55.366 13.65,7.805 c 1.536,0.874 2.543,2.179 2.996,3.883 0.449,1.694 0.23,3.331 -0.64,4.86 -0.87,1.532 -2.171,2.544 -3.851,3.003 -1.682,0.46 -3.32,0.247 -4.845,-0.621 L 148.614,57.258 c -1.529,-0.871 -2.537,-2.166 -3.006,-3.847 -0.06,-0.228 -0.107,-0.46 -0.145,-0.694 l -8.909,5.078 c 1.322,3.465 3.68,6.183 7.016,8.087 l 29.712,16.979 c 2.509,1.433 5.146,2.156 7.836,2.156 1.421,0 2.891,-0.203 4.361,-0.603 4.269,-1.153 7.543,-3.698 9.748,-7.56 2.17,-3.804 2.682,-7.896 1.528,-12.152 -1.155,-4.261 -3.694,-7.538 -7.563,-9.741 L 169.69,43.817 c 1.695,3.669 2.166,7.547 1.426,11.549 z"
             id="path17" />
          <path
             style="fill:#ffffff"
             inkscape:connector-curvature="0"
             d="m 148.83,46.536 c 1.528,-0.871 3.168,-1.081 4.842,-0.623 1.688,0.461 2.981,1.47 3.853,3.003 0.877,1.53 1.088,3.165 0.637,4.863 -0.368,1.4 -1.125,2.533 -2.251,3.381 l 8.347,4.77 c 1.344,-1.674 2.318,-3.623 2.905,-5.805 1.153,-4.262 0.644,-8.35 -1.529,-12.15 -2.198,-3.86 -5.479,-6.406 -9.737,-7.561 -1.478,-0.4 -2.944,-0.603 -4.365,-0.603 -2.688,0 -5.326,0.727 -7.833,2.16 L 120.67,51.097 c 4.294,0.376 8.109,2.058 11.362,5.021 z"
             id="path19" />
          <path
             style="fill:#ffffff"
             inkscape:connector-curvature="0"
             d="m 112.18,90.009 0.092,-0.02 0.38,-0.045 0.067,-19.384 c 0.011,-1.763 0.642,-3.28 1.878,-4.51 1.234,-1.225 2.747,-1.846 4.497,-1.846 1.785,0.009 3.309,0.638 4.561,1.875 1.176,1.167 1.807,2.588 1.865,4.227 l 8.472,-4.832 c -0.767,-2.229 -2.052,-4.258 -3.819,-6.027 -3.114,-3.125 -6.92,-4.718 -11.292,-4.733 h -0.072 c -4.42,0 -8.232,1.574 -11.347,4.682 -3.122,3.12 -4.71,6.938 -4.728,11.349 l -0.091,26.482 c 2.391,-3.449 5.598,-5.87 9.537,-7.218 z"
             id="path21" />
        </g>
      </g>
    </g>
  </g>
</svg>
